<svg width="132" height="156" viewBox="0 0 132 156" fill="none" xmlns="http://www.w3.org/2000/svg">
<g filter="url(#filter0_f_202_26)">
<ellipse cx="65.5769" cy="146.788" rx="20.1923" ry="7.21154" fill="black" fill-opacity="0.2"/>
</g>
<g filter="url(#filter1_d_202_26)">
<path fill-rule="evenodd" clip-rule="evenodd" d="M65.5769 4C99.0326 4 126.154 31.1212 126.154 64.5769C126.154 90.2285 110.21 112.156 87.6914 120.99L69.0272 146.502C68.6381 147.036 68.1215 147.472 67.521 147.773C66.9204 148.074 66.2536 148.231 65.5769 148.231C64.9002 148.231 64.2334 148.074 63.6329 147.773C63.0324 147.472 62.5157 147.036 62.1266 146.502L43.4625 120.99C20.944 112.156 5 90.2285 5 64.5769C5 31.1212 32.1212 4 65.5769 4Z" fill="white"/>
</g>
<path d="M114.615 64.5769C114.615 37.4937 92.6601 15.5385 65.5769 15.5385C38.4937 15.5385 16.5385 37.4937 16.5385 64.5769C16.5385 91.6601 38.4937 113.615 65.5769 113.615C92.6601 113.615 114.615 91.6601 114.615 64.5769Z" fill="#C8A35F"/>
<path d="M75.1356 36C75.2734 36 75.3595 36.1493 75.2903 36.2683L71.225 43.3079L68.2655 48.4374L67.0069 50.6162L65.9052 52.5244C65.8365 52.6435 65.6644 52.6439 65.5953 52.5244L64.4918 50.6162L63.2354 48.4374L60.2736 43.3079L56.211 36.2683C56.1424 36.1488 56.2284 36 56.3657 36H60.9826C61.0467 36 61.1057 36.0339 61.1373 36.0893L65.306 43.3079L65.5958 43.8097C65.6644 43.9287 65.8365 43.9287 65.9056 43.8097L66.1953 43.3079L70.3618 36.0893C70.3938 36.0339 70.4529 36 70.5165 36H75.1356Z" fill="#FCFCFC"/>
<path d="M78.0932 43.3083C78.2309 43.3083 78.317 43.4576 78.2479 43.5766L74.1848 50.6162L71.8524 54.6552L69.3373 59.0123L68.2635 60.873L65.7485 65.2278V65.2301L63.2311 60.873L62.1573 59.0123L59.6423 54.6552L57.3121 50.6162L53.2491 43.5766C53.1804 43.4571 53.2665 43.3083 53.4038 43.3083H58.0206C58.0847 43.3083 58.1437 43.3422 58.1753 43.3976L62.1592 50.2957L62.3418 50.6162L64.6742 54.6552L65.5933 56.2452C65.662 56.3643 65.8341 56.3643 65.9032 56.2452L66.8222 54.6552L69.1524 50.6162L69.3373 50.2957L73.3189 43.3976C73.3509 43.3422 73.4099 43.3083 73.4736 43.3083H78.0927H78.0932Z" fill="#FCFCFC"/>
<path d="M34.1195 80.8441H32.5816L28 70.4348H29.3049L33.3277 79.7256H33.4055L37.4126 70.4348H38.702L34.1199 80.8441H34.1195Z" fill="#FCFCFC"/>
<path d="M40.6897 72.1905H39.5871V70.4347H40.6897V72.1905ZM40.6897 80.8439H39.5871V73.1689H40.6897V80.8439Z" fill="#FCFCFC"/>
<path d="M43.6418 80.8439H42.5392V70.4347H43.6418V80.8439Z" fill="#FCFCFC"/>
<path d="M46.5913 80.8439H45.4887V70.4347H46.5913V80.8439Z" fill="#FCFCFC"/>
<path d="M50.5676 80.9995C49.8114 80.9995 49.2009 80.826 48.7349 80.479C48.269 80.1319 48.036 79.653 48.036 79.0418C48.036 78.6174 48.1422 78.2727 48.3546 78.009C48.5665 77.7448 48.8594 77.5406 49.232 77.395C49.6046 77.2499 50.0293 77.1464 50.5058 77.0842L54.3111 76.6648V77.395L50.8477 77.7833C50.2678 77.8355 49.838 77.944 49.5583 78.1097C49.2787 78.2754 49.1391 78.5602 49.1391 78.964C49.1391 79.3678 49.2737 79.6398 49.5428 79.8417C49.8119 80.0436 50.2362 80.1447 50.8166 80.1447C51.4482 80.1447 52.0125 80.0491 52.5096 79.8572C53.0067 79.6659 53.4053 79.3729 53.7056 78.9796C54.0058 78.5858 54.156 78.0836 54.156 77.4724L54.3734 77.5502V78.6499C54.3734 78.7204 54.3161 78.7772 54.2461 78.7772C54.1921 78.7772 54.145 78.812 54.1271 78.8628C53.8928 79.5262 53.4726 80.0436 52.8671 80.4162C52.2354 80.8045 51.4692 80.9991 50.5685 80.9991L50.5676 80.9995ZM55.227 80.8439H54.2328V78.7465L54.155 78.6843V76.0898C54.155 75.3439 53.9788 74.8106 53.6269 74.4896C53.2749 74.1687 52.6739 74.008 51.8253 74.008C50.9768 74.008 50.3831 74.1609 49.9538 74.4663C49.524 74.7717 49.3094 75.2666 49.3094 75.9501V76.0119H48.2067V75.9501C48.2067 75.4012 48.3514 74.9067 48.6416 74.4663C48.9313 74.0263 49.3505 73.6738 49.8998 73.4096C50.4486 73.1454 51.1164 73.0136 51.9036 73.0136C52.6909 73.0136 53.3142 73.1482 53.8063 73.4174C54.2978 73.6871 54.6581 74.0492 54.8855 74.5052C55.113 74.9612 55.227 75.4735 55.227 76.0431V80.8439Z" fill="#FCFCFC"/>
<path d="M65.043 80.8439H63.5051L58.923 70.4347H60.2279L64.2507 79.7254H64.3285L68.3357 70.4347H69.625L65.043 80.8439Z" fill="#FCFCFC"/>
<path d="M73.5827 80.9995C72.7647 80.9995 72.0503 80.8365 71.4392 80.5101C70.8282 80.1837 70.36 79.7203 70.0336 79.1197C69.7073 78.519 69.5444 77.8144 69.5444 77.0068C69.5444 76.1992 69.7073 75.5413 70.0336 74.9406C70.36 74.3399 70.8259 73.8684 71.4315 73.5268C72.037 73.1853 72.7492 73.0141 73.5671 73.0141C74.3228 73.0141 74.9883 73.1542 75.5631 73.4334C76.138 73.7132 76.5907 74.1197 76.922 74.6531C77.2534 75.1865 77.4191 75.8366 77.4191 76.603C77.4191 76.7376 77.4113 76.8649 77.3958 76.9834C77.3802 77.1025 77.3619 77.2142 77.3413 77.3177H70.2277V76.6341H76.6735L76.3472 77.0379C76.3572 76.9344 76.365 76.831 76.3705 76.7271C76.3756 76.6236 76.3783 76.5146 76.3783 76.4006C76.3783 75.5926 76.1348 74.9791 75.6483 74.5597C75.1613 74.1403 74.4624 73.9306 73.5515 73.9306C72.5057 73.9306 71.75 74.1925 71.2836 74.7154C70.8177 75.2386 70.5847 75.9556 70.5847 76.8671V77.1158C70.5847 78.0378 70.8177 78.7626 71.2836 79.2909C71.7496 79.8192 72.5107 80.0834 73.5666 80.0834C74.4674 80.0834 75.1329 79.9255 75.5627 79.6096C75.992 79.2936 76.2071 78.856 76.2071 78.297V78.188H77.3097V78.297C77.3097 78.8358 77.1491 79.3069 76.8282 79.7107C76.5069 80.1145 76.0643 80.4309 75.5004 80.6584C74.9361 80.886 74.2967 81 73.5822 81L73.5827 80.9995Z" fill="#FCFCFC"/>
<path d="M79.9797 80.8439H78.8771V73.1688H79.8712V75.3284L79.9802 75.4062V80.8439H79.9797ZM79.8548 76.6804H79.7966C79.7261 76.6804 79.6694 76.6231 79.6694 76.5531V75.3943C79.6694 75.3238 79.7266 75.267 79.7966 75.267H79.8447C79.9051 75.267 79.9559 75.2235 79.9683 75.1645C80.0461 74.7904 80.1871 74.4461 80.3912 74.133C80.6136 73.7914 80.9116 73.519 81.2842 73.3171C81.6567 73.1152 82.1126 73.0141 82.6509 73.0141C83.2408 73.0141 83.7251 73.1436 84.1032 73.4023C84.4812 73.6614 84.7581 73.9979 84.9343 74.4123C85.1101 74.8266 85.1984 75.2721 85.1984 75.7482V76.5096H84.0958V75.9194C84.0958 75.267 83.9507 74.7799 83.661 74.459C83.3708 74.138 82.8893 73.9773 82.2165 73.9773C81.4398 73.9773 80.8731 74.2104 80.5157 74.6764C80.1761 75.1196 79.9976 75.7455 79.9811 76.5545C79.9797 76.624 79.9239 76.6808 79.8548 76.6808V76.6804Z" fill="#FCFCFC"/>
<path d="M89.7814 80.9996C88.9635 80.9996 88.2696 80.8288 87.7002 80.4868C87.1308 80.1453 86.6983 79.6737 86.4031 79.073C86.1079 78.4724 85.9605 77.7833 85.9605 77.0069C85.9605 76.2304 86.1079 75.5413 86.4031 74.9407C86.6983 74.34 87.1226 73.8684 87.6769 73.5269C88.2307 73.1853 88.9012 73.0141 89.6885 73.0141C90.5993 73.0141 91.3348 73.2316 91.8941 73.6665C92.4535 74.1015 92.8155 74.6504 92.9812 75.3133H93.3538V76.864C93.3538 76.9345 93.2965 76.9913 93.2265 76.9913H93.1835C93.1144 76.9913 93.059 76.935 93.0572 76.8658C93.0343 75.9841 92.7652 75.2982 92.2512 74.8084C91.7124 74.2956 90.9723 74.0392 90.0299 74.0392C89.45 74.0392 88.9374 74.1326 88.492 74.3189C88.0467 74.5053 87.6998 74.8138 87.4512 75.2433C87.2027 75.6732 87.0787 76.261 87.0787 77.0069C87.0787 77.7527 87.2004 78.3405 87.4435 78.7704C87.6865 79.2003 88.0334 79.5112 88.4843 79.7026C88.9346 79.8944 89.4601 79.9901 90.0606 79.9901C90.6611 79.9901 91.1838 79.8788 91.6291 79.6559C92.074 79.4333 92.4237 79.1069 92.6777 78.677C92.9134 78.2773 93.0398 77.8039 93.0562 77.2564C93.0585 77.1872 93.1135 77.1314 93.1826 77.1314H93.2297C93.2984 77.1314 93.3547 77.1859 93.357 77.2545L93.3995 78.5763H93.1862C93.1286 78.5763 93.0791 78.6157 93.0645 78.6715C92.87 79.3926 92.4924 79.9562 91.9317 80.3627C91.3467 80.7876 90.6295 80.9996 89.7805 80.9996H89.7814ZM94.1616 80.8439H93.1519V78.3272L93.0585 78.1253V70.4347H94.1611V80.8439H94.1616Z" fill="#FCFCFC"/>
<path d="M99.6593 80.9995C98.8414 80.9995 98.1269 80.8365 97.5159 80.5101C96.9049 80.1837 96.4366 79.7203 96.1103 79.1197C95.7839 78.519 95.621 77.8144 95.621 77.0068C95.621 76.1992 95.7839 75.5413 96.1103 74.9406C96.4366 74.3399 96.9026 73.8684 97.5081 73.5268C98.1136 73.1853 98.8258 73.0141 99.6437 73.0141C100.399 73.0141 101.065 73.1542 101.64 73.4334C102.215 73.7132 102.667 74.1197 102.999 74.6531C103.33 75.1865 103.496 75.8366 103.496 76.603C103.496 76.7376 103.488 76.8649 103.472 76.9834C103.457 77.1025 103.439 77.2142 103.418 77.3177H96.3043V76.6341H102.75L102.424 77.0379C102.434 76.9344 102.442 76.831 102.447 76.7271C102.452 76.6236 102.455 76.5146 102.455 76.4006C102.455 75.5926 102.211 74.9791 101.725 74.5597C101.238 74.1403 100.539 73.9306 99.6282 73.9306C98.5823 73.9306 97.8267 74.1925 97.3603 74.7154C96.8943 75.2386 96.6614 75.9556 96.6614 76.8671V77.1158C96.6614 78.0378 96.8943 78.7626 97.3603 79.2909C97.8262 79.8192 98.5874 80.0834 99.6433 80.0834C100.544 80.0834 101.21 79.9255 101.639 79.6096C102.069 79.2936 102.284 78.856 102.284 78.297V78.188H103.386V78.297C103.386 78.8358 103.226 79.3069 102.905 79.7107C102.584 80.1145 102.141 80.4309 101.577 80.6584C101.013 80.886 100.373 81 99.6588 81L99.6593 80.9995Z" fill="#FCFCFC"/>
<defs>
<filter id="filter0_f_202_26" x="43.3846" y="137.577" width="44.3846" height="18.4231" filterUnits="userSpaceOnUse" color-interpolation-filters="sRGB">
<feFlood flood-opacity="0" result="BackgroundImageFix"/>
<feBlend mode="normal" in="SourceGraphic" in2="BackgroundImageFix" result="shape"/>
<feGaussianBlur stdDeviation="1" result="effect1_foregroundBlur_202_26"/>
</filter>
<filter id="filter1_d_202_26" x="0" y="0" width="131.154" height="154.231" filterUnits="userSpaceOnUse" color-interpolation-filters="sRGB">
<feFlood flood-opacity="0" result="BackgroundImageFix"/>
<feColorMatrix in="SourceAlpha" type="matrix" values="0 0 0 0 0 0 0 0 0 0 0 0 0 0 0 0 0 0 127 0" result="hardAlpha"/>
<feOffset dy="1"/>
<feGaussianBlur stdDeviation="2.5"/>
<feComposite in2="hardAlpha" operator="out"/>
<feColorMatrix type="matrix" values="0 0 0 0 0 0 0 0 0 0 0 0 0 0 0 0 0 0 0.1 0"/>
<feBlend mode="normal" in2="BackgroundImageFix" result="effect1_dropShadow_202_26"/>
<feBlend mode="normal" in="SourceGraphic" in2="effect1_dropShadow_202_26" result="shape"/>
</filter>
</defs>
</svg>
