<svg width="480" height="180" viewBox="0 0 480 180" fill="none" xmlns="http://www.w3.org/2000/svg">
<path d="M277.528 0C278.079 0 278.423 0.596999 278.147 1.07313L261.886 29.231L250.048 49.7487L245.013 58.4638L240.607 66.0966C240.332 66.5727 239.644 66.5746 239.367 66.0966L234.953 58.4638L229.928 49.7487L218.081 29.231L201.831 1.07313C201.556 0.595168 201.9 0 202.45 0H220.917C221.173 0 221.409 0.135515 221.536 0.357101L238.21 29.231L239.369 31.2381C239.644 31.7142 240.332 31.7142 240.609 31.2381L241.767 29.231L258.433 0.357101C258.561 0.135515 258.797 0 259.052 0H277.528Z" fill="#FCFCFC"/>
<path d="M289.37 29.2314C289.921 29.2314 290.265 29.8284 289.988 30.3046L273.737 58.4624L264.407 74.618L254.347 92.0464L250.052 99.4887L239.992 116.908V116.917L229.922 99.4887L225.627 92.0464L215.567 74.618L206.247 58.4624L189.995 30.3046C189.72 29.8266 190.065 29.2314 190.614 29.2314H209.081C209.337 29.2314 209.573 29.367 209.7 29.5885L225.635 57.1805L226.365 58.4624L235.695 74.618L239.371 80.9781C239.646 81.4542 240.334 81.4542 240.61 80.9781L244.287 74.618L253.607 58.4624L254.347 57.1805L270.273 29.5885C270.401 29.367 270.637 29.2314 270.892 29.2314H289.368H289.37Z" fill="#FCFCFC"/>
<path d="M113.477 179.372H107.326L89 137.736H94.2195L110.31 174.899H110.621L126.65 137.736H131.807L113.479 179.372H113.477Z" fill="#FCFCFC"/>
<path d="M139.762 144.759H135.352V137.736H139.762V144.759ZM139.762 179.372H135.352V148.673H139.762V179.372Z" fill="#FCFCFC"/>
<path d="M151.567 179.372H147.156V137.736H151.567V179.372Z" fill="#FCFCFC"/>
<path d="M163.363 179.372H158.953V137.736H163.363V179.372Z" fill="#FCFCFC"/>
<path d="M179.267 179.996C176.242 179.996 173.8 179.302 171.936 177.914C170.072 176.526 169.141 174.61 169.141 172.165C169.141 170.468 169.565 169.089 170.415 168.034C171.262 166.977 172.434 166.16 173.924 165.578C175.415 164.998 177.114 164.584 179.019 164.335L194.241 162.657V165.578L180.387 167.131C178.067 167.34 176.348 167.774 175.23 168.437C174.111 169.1 173.553 170.239 173.553 171.854C173.553 173.469 174.091 174.557 175.168 175.365C176.244 176.172 177.941 176.577 180.263 176.577C182.789 176.577 185.046 176.194 187.035 175.427C189.023 174.661 190.617 173.489 191.818 171.916C193.019 170.341 193.62 168.332 193.62 165.888L194.49 166.199V170.598C194.49 170.88 194.261 171.107 193.981 171.107C193.765 171.107 193.576 171.246 193.505 171.449C192.567 174.103 190.887 176.172 188.464 177.663C185.938 179.216 182.873 179.994 179.27 179.994L179.267 179.996ZM197.904 179.373H193.928V170.984L193.616 170.735V160.357C193.616 157.374 192.911 155.241 191.504 153.957C190.096 152.673 187.692 152.03 184.298 152.03C180.903 152.03 178.529 152.642 176.812 153.863C175.092 155.085 174.234 157.064 174.234 159.799V160.046H169.824V159.799C169.824 157.603 170.402 155.625 171.563 153.863C172.722 152.104 174.399 150.693 176.596 149.637C178.791 148.58 181.462 148.053 184.611 148.053C187.76 148.053 190.253 148.591 192.221 149.668C194.187 150.747 195.628 152.195 196.538 154.019C197.448 155.843 197.904 157.892 197.904 160.17V179.373Z" fill="#FCFCFC"/>
<path d="M237.167 179.372H231.015L212.688 137.736H217.907L233.998 174.899H234.309L250.337 137.736H255.495L237.167 179.372Z" fill="#FCFCFC"/>
<path d="M271.325 179.996C268.053 179.996 265.195 179.344 262.751 178.038C260.307 176.733 258.434 174.879 257.129 172.477C255.824 170.074 255.172 167.256 255.172 164.025C255.172 160.795 255.824 158.163 257.129 155.761C258.434 153.358 260.298 151.472 262.72 150.106C265.142 148.74 267.991 148.055 271.263 148.055C274.285 148.055 276.947 148.615 279.247 149.732C281.546 150.851 283.357 152.477 284.682 154.611C286.008 156.744 286.67 159.345 286.67 162.41C286.67 162.949 286.639 163.458 286.577 163.932C286.515 164.408 286.442 164.855 286.359 165.269H257.905V162.535H283.688L282.383 164.15C282.423 163.736 282.454 163.322 282.476 162.906C282.496 162.493 282.507 162.057 282.507 161.601C282.507 158.368 281.533 155.915 279.587 154.237C277.639 152.56 274.844 151.721 271.2 151.721C267.017 151.721 263.994 152.768 262.129 154.86C260.265 156.953 259.333 159.821 259.333 163.467V164.461C259.333 168.149 260.265 171.048 262.129 173.162C263.993 175.275 267.037 176.332 271.261 176.332C274.864 176.332 277.526 175.7 279.245 174.436C280.962 173.173 281.822 171.422 281.822 169.186V168.75H286.233V169.186C286.233 171.341 285.59 173.226 284.307 174.841C283.022 176.456 281.251 177.722 278.996 178.632C276.738 179.542 274.181 179.998 271.323 179.998L271.325 179.996Z" fill="#FCFCFC"/>
<path d="M296.918 179.373H292.508V148.674H296.484V157.312L296.92 157.623V179.373H296.918ZM296.418 162.72H296.186C295.904 162.72 295.677 162.491 295.677 162.211V157.576C295.677 157.294 295.906 157.066 296.186 157.066H296.378C296.62 157.066 296.823 156.892 296.872 156.656C297.184 155.16 297.748 153.783 298.564 152.53C299.454 151.164 300.646 150.075 302.136 149.267C303.626 148.459 305.45 148.055 307.603 148.055C309.962 148.055 311.899 148.573 313.412 149.608C314.924 150.644 316.031 151.99 316.736 153.647C317.439 155.305 317.793 157.087 317.793 158.991V162.037H313.382V159.676C313.382 157.066 312.802 155.118 311.643 153.834C310.482 152.551 308.556 151.908 305.865 151.908C302.758 151.908 300.492 152.84 299.062 154.704C297.704 156.477 296.99 158.98 296.924 162.216C296.918 162.494 296.695 162.721 296.418 162.721V162.72Z" fill="#FCFCFC"/>
<path d="M336.119 179.995C332.848 179.995 330.072 179.312 327.795 177.944C325.517 176.578 323.787 174.692 322.606 172.289C321.425 169.886 320.836 167.13 320.836 164.024C320.836 160.919 321.425 158.162 322.606 155.76C323.787 153.357 325.484 151.471 327.701 150.105C329.917 148.739 332.599 148.054 335.748 148.054C339.391 148.054 342.333 148.924 344.57 150.663C346.807 152.403 348.255 154.599 348.918 157.251H350.408V163.453C350.408 163.735 350.18 163.962 349.9 163.962H349.727C349.451 163.962 349.229 163.737 349.222 163.46C349.131 159.933 348.054 157.19 345.998 155.231C343.843 153.18 340.883 152.154 337.113 152.154C334.794 152.154 332.743 152.528 330.962 153.273C329.181 154.018 327.793 155.253 326.799 156.97C325.805 158.69 325.309 161.041 325.309 164.024C325.309 167.008 325.796 169.359 326.768 171.079C327.74 172.798 329.128 174.042 330.931 174.807C332.732 175.574 334.834 175.957 337.236 175.957C339.638 175.957 341.729 175.512 343.51 174.62C345.29 173.73 346.688 172.425 347.704 170.705C348.647 169.106 349.153 167.213 349.218 165.022C349.228 164.746 349.447 164.523 349.724 164.523H349.912C350.187 164.523 350.412 164.74 350.421 165.015L350.592 170.302H349.738C349.508 170.302 349.31 170.46 349.251 170.683C348.473 173.567 346.963 175.822 344.72 177.448C342.381 179.147 339.512 179.995 336.116 179.995H336.119ZM353.64 179.372H349.601V169.306L349.228 168.498V137.736H353.638V179.372H353.64Z" fill="#FCFCFC"/>
<path d="M375.637 179.996C372.366 179.996 369.508 179.344 367.064 178.038C364.62 176.733 362.747 174.879 361.441 172.477C360.136 170.074 359.484 167.256 359.484 164.025C359.484 160.795 360.136 158.163 361.441 155.761C362.747 153.358 364.611 151.472 367.033 150.106C369.455 148.74 372.303 148.055 375.575 148.055C378.598 148.055 381.26 148.615 383.559 149.732C385.859 150.851 387.669 152.477 388.995 154.611C390.32 156.744 390.983 159.345 390.983 162.41C390.983 162.949 390.952 163.458 390.89 163.932C390.827 164.408 390.754 164.855 390.672 165.269H362.218V162.535H388.001L386.695 164.15C386.735 163.736 386.767 163.322 386.789 162.906C386.809 162.493 386.82 162.057 386.82 161.601C386.82 158.368 385.846 155.915 383.9 154.237C381.952 152.56 379.156 151.721 375.513 151.721C371.329 151.721 368.307 152.768 366.441 154.86C364.578 156.953 363.646 159.821 363.646 163.467V164.461C363.646 168.149 364.578 171.048 366.441 173.162C368.305 175.275 371.35 176.332 375.573 176.332C379.176 176.332 381.838 175.7 383.557 174.436C385.275 173.173 386.135 171.422 386.135 169.186V168.75H390.545V169.186C390.545 171.341 389.903 173.226 388.619 174.841C387.334 176.456 385.564 177.722 383.308 178.632C381.051 179.542 378.493 179.998 375.635 179.998L375.637 179.996Z" fill="#FCFCFC"/>
</svg>
