<svg width="648" height="271" viewBox="0 0 648 271" fill="none" xmlns="http://www.w3.org/2000/svg">
<path d="M88.9688 151.335H66.6102L0 0H18.9716L77.4568 135.074H78.588L136.847 0H155.592L88.9755 151.335H88.9688Z" fill="#FCFCFC"/>
<path d="M184.491 25.5265H168.461V0H184.491V25.5265ZM184.491 151.335H168.461V39.7508H184.491V151.335Z" fill="#FCFCFC"/>
<path d="M227.374 151.335H211.344V0H227.374V151.335Z" fill="#FCFCFC"/>
<path d="M270.312 151.335H254.281V0H270.312V151.335Z" fill="#FCFCFC"/>
<path d="M328.094 153.598C317.101 153.598 308.224 151.075 301.45 146.03C294.676 140.985 291.289 134.022 291.289 125.136C291.289 118.966 292.833 113.954 295.92 110.12C299.001 106.279 303.26 103.311 308.677 101.194C314.094 99.0839 320.269 97.5796 327.196 96.6743L382.52 90.5773V101.194L332.167 106.838C323.736 107.597 317.487 109.175 313.421 111.584C309.356 113.994 307.326 118.134 307.326 124.005C307.326 129.875 309.282 133.829 313.195 136.765C317.108 139.7 323.277 141.171 331.714 141.171C340.897 141.171 349.102 139.78 356.329 136.991C363.555 134.209 369.351 129.949 373.717 124.231C378.082 118.507 380.265 111.205 380.265 102.319L383.425 103.45V119.439C383.425 120.464 382.594 121.289 381.575 121.289C380.79 121.289 380.105 121.795 379.845 122.534C376.438 132.178 370.33 139.7 361.526 145.118C352.343 150.763 341.203 153.591 328.108 153.591L328.094 153.598ZM395.836 151.335H381.383V120.843L380.251 119.938V82.2171C380.251 71.3742 377.689 63.6197 372.572 58.9537C367.455 54.2877 358.718 51.9514 346.381 51.9514C334.043 51.9514 325.413 54.1746 319.171 58.6142C312.922 63.0539 309.802 70.2492 309.802 80.1869V81.0856H293.771V80.1869C293.771 72.2062 295.874 65.0175 300.093 58.6142C304.305 52.2176 310.4 47.0923 318.386 43.2517C326.364 39.4111 336.073 37.4941 347.518 37.4941C358.964 37.4941 368.027 39.4511 375.181 43.3649C382.327 47.2854 387.564 52.5504 390.872 59.18C394.179 65.8096 395.836 73.2579 395.836 81.5382V151.335Z" fill="#FCFCFC"/>
<path d="M88.9755 268.266H66.6168L0 116.931H18.9716L77.4568 252.005H78.5881L136.847 116.931H155.592L88.9755 268.266Z" fill="#FCFCFC"/>
<path d="M213.118 270.528C201.226 270.528 190.839 268.159 181.955 263.413C173.072 258.667 166.264 251.931 161.52 243.198C156.775 234.465 154.406 224.221 154.406 212.48C154.406 200.738 156.775 191.173 161.52 182.44C166.264 173.707 173.038 166.851 181.842 161.886C190.646 156.92 201 154.431 212.891 154.431C223.878 154.431 233.553 156.468 241.911 160.528C250.269 164.595 256.85 170.506 261.668 178.26C266.486 186.015 268.895 195.466 268.895 206.609C268.895 208.566 268.781 210.416 268.555 212.14C268.329 213.871 268.063 215.495 267.763 216.999H164.341V207.061H258.055L253.31 212.932C253.456 211.428 253.57 209.924 253.649 208.413C253.723 206.908 253.763 205.324 253.763 203.667C253.763 191.919 250.222 182.999 243.149 176.902C236.069 170.805 225.907 167.757 212.665 167.757C197.46 167.757 186.474 171.564 179.693 179.165C172.919 186.773 169.532 197.197 169.532 210.449V214.064C169.532 227.469 172.919 238.006 179.693 245.687C186.467 253.369 197.533 257.209 212.885 257.209C225.981 257.209 235.656 254.913 241.904 250.32C248.146 245.727 251.274 239.364 251.274 231.237V229.653H267.304V231.237C267.304 239.071 264.969 245.92 260.304 251.791C255.632 257.662 249.198 262.261 240.999 265.569C232.795 268.878 223.498 270.535 213.111 270.535L213.118 270.528Z" fill="#FCFCFC"/>
<path d="M306.148 268.265H290.117V156.681H304.571V188.078L306.154 189.21V268.265H306.148ZM304.331 207.734H303.486C302.461 207.734 301.636 206.902 301.636 205.883V189.036C301.636 188.011 302.468 187.186 303.486 187.186H304.185C305.063 187.186 305.802 186.554 305.981 185.695C307.112 180.257 309.162 175.251 312.13 170.699C315.364 165.733 319.696 161.773 325.113 158.837C330.529 155.902 337.157 154.431 344.982 154.431C353.56 154.431 360.6 156.315 366.097 160.075C371.593 163.843 375.619 168.735 378.181 174.759C380.736 180.783 382.021 187.259 382.021 194.182V205.251H365.99V196.671C365.99 187.186 363.881 180.104 359.669 175.438C355.45 170.772 348.449 168.436 338.667 168.436C327.375 168.436 319.137 171.824 313.94 178.6C309.002 185.043 306.407 194.142 306.168 205.903C306.148 206.915 305.336 207.74 304.331 207.74V207.734Z" fill="#FCFCFC"/>
<path d="M448.605 270.529C436.714 270.529 426.626 268.046 418.348 263.074C410.07 258.109 403.782 251.253 399.489 242.52C395.197 233.787 393.055 223.769 393.055 212.48C393.055 201.191 395.197 191.174 399.489 182.441C403.782 173.708 409.95 166.852 418.009 161.887C426.06 156.921 435.809 154.432 447.255 154.432C460.497 154.432 471.19 157.593 479.322 163.917C487.454 170.24 492.717 178.221 495.126 187.859H500.543V210.404C500.543 211.429 499.711 212.254 498.693 212.254H498.067C497.062 212.254 496.257 211.435 496.231 210.43C495.898 197.61 491.985 187.639 484.512 180.517C476.68 173.062 465.92 169.335 452.219 169.335C443.788 169.335 436.335 170.693 429.86 173.402C423.385 176.111 418.341 180.597 414.728 186.841C411.115 193.091 409.311 201.637 409.311 212.48C409.311 223.323 411.081 231.87 414.615 238.12C418.148 244.37 423.192 248.89 429.747 251.672C436.295 254.461 443.934 255.852 452.665 255.852C461.395 255.852 468.994 254.235 475.469 250.993C481.937 247.758 487.021 243.012 490.714 236.762C494.141 230.951 495.978 224.069 496.217 216.108C496.251 215.103 497.049 214.291 498.054 214.291H498.739C499.738 214.291 500.556 215.083 500.589 216.081L501.208 235.298H498.107C497.269 235.298 496.55 235.87 496.337 236.682C493.509 247.166 488.019 255.36 479.868 261.27C471.363 267.447 460.936 270.529 448.592 270.529H448.605ZM512.288 268.266H497.608V231.677L496.251 228.741V116.931H512.281V268.266H512.288Z" fill="#FCFCFC"/>
<path d="M592.227 270.528C580.336 270.528 569.948 268.159 561.065 263.413C552.181 258.667 545.374 251.931 540.629 243.198C535.885 234.465 533.516 224.221 533.516 212.48C533.516 200.738 535.885 191.173 540.629 182.44C545.374 173.707 552.148 166.851 560.952 161.886C569.755 156.92 580.109 154.431 592.001 154.431C602.987 154.431 612.663 156.468 621.021 160.528C629.378 164.595 635.96 170.506 640.777 178.26C645.595 186.015 648.004 195.466 648.004 206.609C648.004 208.566 647.891 210.416 647.665 212.14C647.438 213.871 647.172 215.495 646.873 216.999H543.451V207.061H637.164L632.419 212.932C632.566 211.428 632.679 209.924 632.759 208.413C632.832 206.908 632.872 205.324 632.872 203.667C632.872 191.919 629.332 182.999 622.258 176.902C615.178 170.805 605.017 167.757 591.775 167.757C576.569 167.757 565.583 171.564 558.802 179.165C552.028 186.773 548.641 197.197 548.641 210.449V214.064C548.641 227.469 552.028 238.006 558.802 245.687C565.576 253.369 576.643 257.209 591.994 257.209C605.09 257.209 614.765 254.913 621.014 250.32C627.256 245.727 630.383 239.364 630.383 231.237V229.653H646.414V231.237C646.414 239.071 644.078 245.92 639.413 251.791C634.742 257.662 628.307 262.261 620.109 265.569C611.904 268.878 602.608 270.535 592.22 270.535L592.227 270.528Z" fill="#FCFCFC"/>
</svg>
