<svg width="168" height="100" viewBox="0 0 168 100" fill="none" xmlns="http://www.w3.org/2000/svg">
<path d="M104.741 0C105.047 0 105.239 0.331672 105.085 0.596195L96.051 16.2397L89.4743 27.6386L86.6772 32.4804L84.229 36.7209C84.0764 36.9854 83.694 36.9865 83.5404 36.7209L81.0881 32.4804L78.2961 27.6386L71.7144 16.2397L62.6864 0.596195C62.5339 0.330654 62.7251 0 63.0302 0H73.2899C73.4323 0 73.5635 0.0752874 73.6337 0.198392L82.8976 16.2397L83.5414 17.3548C83.694 17.6193 84.0764 17.6193 84.23 17.3548L84.8738 16.2397L94.1327 0.198392C94.2039 0.0752874 94.3351 0 94.4765 0H104.741Z" fill="#FCFCFC"/>
<path d="M111.317 16.2407C111.624 16.2407 111.815 16.5724 111.661 16.8369L102.632 32.4804L97.4491 41.4559L91.86 51.1385L89.4738 55.2732L83.8848 64.9507V64.9557L78.2906 55.2732L75.9045 51.1385L70.3154 41.4559L65.1373 32.4804L56.1083 16.8369C55.9557 16.5714 56.147 16.2407 56.4521 16.2407H66.7118C66.8542 16.2407 66.9854 16.316 67.0555 16.4391L75.9085 31.7682L76.3144 32.4804L81.4976 41.4559L83.54 44.9893C83.6925 45.2538 84.075 45.2538 84.2286 44.9893L86.2709 41.4559L91.4491 32.4804L91.86 31.7682L100.708 16.4391C100.779 16.316 100.91 16.2407 101.052 16.2407H111.316H111.317Z" fill="#FCFCFC"/>
<path d="M13.5989 99.653H10.1813L0 76.5215H2.8998L11.8393 97.1675H12.0122L20.917 76.5215H23.7822L13.5999 99.653H13.5989Z" fill="#FCFCFC"/>
<path d="M28.2002 80.4232H25.75V76.5215H28.2002V80.4232ZM28.2002 99.653H25.75V82.5974H28.2002V99.653Z" fill="#FCFCFC"/>
<path d="M34.7549 99.653H32.3047V76.5215H34.7549V99.653Z" fill="#FCFCFC"/>
<path d="M41.3174 99.653H38.8672V76.5215H41.3174V99.653Z" fill="#FCFCFC"/>
<path d="M50.1491 99.9989C48.4688 99.9989 47.112 99.6133 46.0766 98.8421C45.0411 98.0709 44.5234 97.0067 44.5234 95.6485C44.5234 94.7054 44.7594 93.9393 45.2314 93.3533C45.7023 92.7662 46.3532 92.3125 47.1812 91.9889C48.0091 91.6664 48.953 91.4365 50.0118 91.2981L58.4681 90.3662V91.9889L50.7716 92.8517C49.4829 92.9677 48.5278 93.2088 47.9064 93.5771C47.2849 93.9454 46.9747 94.5782 46.9747 95.4756C46.9747 96.3729 47.2737 96.9772 47.8718 97.4259C48.4699 97.8746 49.4127 98.0994 50.7024 98.0994C52.1061 98.0994 53.3602 97.8868 54.4647 97.4605C55.5693 97.0352 56.4552 96.3841 57.1225 95.5101C57.7897 94.6352 58.1233 93.5191 58.1233 92.1609L58.6065 92.3338V94.7776C58.6065 94.9343 58.4793 95.0605 58.3237 95.0605C58.2037 95.0605 58.0989 95.1378 58.0592 95.2507C57.5385 96.7249 56.6048 97.8746 55.2591 98.7027C53.8555 99.5655 52.1528 99.9979 50.1511 99.9979L50.1491 99.9989ZM60.5034 99.653H58.2942V94.9923L58.1213 94.8539V89.0883C58.1213 87.431 57.7297 86.2457 56.9475 85.5325C56.1654 84.8193 54.8299 84.4622 52.9442 84.4622C51.0584 84.4622 49.7392 84.802 48.7852 85.4806C47.8301 86.1592 47.3531 87.259 47.3531 88.778V88.9154H44.9028V88.778C44.9028 87.5582 45.2242 86.4594 45.8691 85.4806C46.5129 84.5029 47.4446 83.7195 48.6651 83.1325C49.8847 82.5454 51.3686 82.2524 53.1181 82.2524C54.8675 82.2524 56.2528 82.5516 57.3462 83.1498C58.4386 83.749 59.2391 84.5538 59.7446 85.5671C60.2501 86.5804 60.5034 87.7189 60.5034 88.9846V99.653Z" fill="#FCFCFC"/>
<path d="M82.3186 99.653H78.9011L68.7188 76.5215H71.6186L80.558 97.1675H80.7309L89.6358 76.5215H92.501L82.3186 99.653Z" fill="#FCFCFC"/>
<path d="M101.294 99.9989C99.4768 99.9989 97.889 99.6367 96.5312 98.9113C95.1733 98.1859 94.1328 97.1563 93.4076 95.8214C92.6824 94.4866 92.3203 92.9208 92.3203 91.1261C92.3203 89.3315 92.6824 87.8695 93.4076 86.5346C94.1328 85.1998 95.1682 84.1519 96.5139 83.3929C97.8595 82.6339 99.4422 82.2534 101.26 82.2534C102.939 82.2534 104.418 82.5647 105.695 83.1854C106.973 83.807 107.979 84.7104 108.715 85.8957C109.452 87.081 109.82 88.5257 109.82 90.2288C109.82 90.5279 109.803 90.8107 109.768 91.0743C109.733 91.3388 109.693 91.587 109.647 91.817H93.8389V90.298H108.163L107.438 91.1953C107.46 90.9654 107.477 90.7355 107.49 90.5045C107.501 90.2746 107.507 90.0324 107.507 89.7791C107.507 87.9834 106.966 86.6201 105.885 85.6882C104.802 84.7562 103.249 84.2902 101.225 84.2902C98.9011 84.2902 97.2218 84.8722 96.1854 86.0341C95.1499 87.197 94.6322 88.7902 94.6322 90.8158V91.3683C94.6322 93.4173 95.1499 95.0279 96.1854 96.2019C97.2208 97.376 98.9123 97.9631 101.259 97.9631C103.26 97.9631 104.739 97.6121 105.694 96.9101C106.648 96.208 107.126 95.2354 107.126 93.9932V93.751H109.577V93.9932C109.577 95.1906 109.22 96.2375 108.507 97.1349C107.793 98.0322 106.809 98.7353 105.556 99.2409C104.302 99.7466 102.881 99.9999 101.293 99.9999L101.294 99.9989Z" fill="#FCFCFC"/>
<path d="M115.513 99.653H113.062V82.5973H115.272V87.3964L115.514 87.5693V99.653H115.513ZM115.235 90.4007H115.106C114.949 90.4007 114.823 90.2736 114.823 90.1179V87.5429C114.823 87.3862 114.95 87.26 115.106 87.26H115.213C115.347 87.26 115.46 87.1634 115.487 87.0321C115.66 86.2009 115.973 85.4358 116.427 84.7399C116.921 83.981 117.584 83.3756 118.412 82.9269C119.239 82.4783 120.253 82.2534 121.449 82.2534C122.76 82.2534 123.836 82.5413 124.676 83.1162C125.516 83.692 126.131 84.4398 126.523 85.3606C126.914 86.2813 127.11 87.2712 127.11 88.3293V90.0213H124.66V88.7098C124.66 87.26 124.337 86.1775 123.693 85.4643C123.049 84.7511 121.979 84.394 120.483 84.394C118.757 84.394 117.498 84.9119 116.704 85.9476C115.949 86.9324 115.552 88.3232 115.516 90.121C115.513 90.2756 115.389 90.4018 115.235 90.4018V90.4007Z" fill="#FCFCFC"/>
<path d="M137.288 99.9989C135.47 99.9989 133.928 99.6195 132.663 98.8595C131.398 98.1005 130.436 97.0526 129.78 95.7177C129.124 94.3829 128.797 92.8517 128.797 91.1262C128.797 89.4007 129.124 87.8695 129.78 86.5347C130.436 85.1999 131.379 84.152 132.611 83.393C133.842 82.634 135.332 82.2535 137.081 82.2535C139.105 82.2535 140.74 82.7368 141.983 83.7033C143.226 84.6698 144.03 85.8897 144.398 87.3629H145.226V90.8088C145.226 90.9655 145.099 91.0916 144.944 91.0916H144.848C144.694 91.0916 144.571 90.9665 144.567 90.8129C144.516 88.8534 143.918 87.3293 142.776 86.2407C141.579 85.1012 139.934 84.5315 137.84 84.5315C136.551 84.5315 135.412 84.739 134.423 85.1531C133.433 85.5672 132.662 86.2529 132.11 87.2072C131.557 88.1625 131.282 89.4689 131.282 91.1262C131.282 92.7836 131.552 94.0899 132.092 95.0452C132.632 96.0006 133.403 96.6914 134.405 97.1167C135.406 97.5429 136.574 97.7556 137.908 97.7556C139.243 97.7556 140.404 97.5084 141.394 97.0129C142.383 96.5184 143.16 95.793 143.724 94.8377C144.248 93.9495 144.529 92.8975 144.565 91.6807C144.57 91.5271 144.692 91.403 144.846 91.403H144.951C145.103 91.403 145.228 91.524 145.234 91.6766L145.328 94.6139H144.854C144.726 94.6139 144.616 94.7014 144.584 94.8255C144.151 96.4279 143.312 97.6803 142.066 98.5837C140.766 99.5279 139.173 99.9989 137.286 99.9989H137.288ZM147.022 99.653H144.778V94.0604L144.57 93.6117V76.5215H147.021V99.653H147.022Z" fill="#FCFCFC"/>
<path d="M159.24 99.9989C157.422 99.9989 155.834 99.6367 154.476 98.9113C153.119 98.1859 152.078 97.1563 151.353 95.8214C150.628 94.4866 150.266 92.9208 150.266 91.1261C150.266 89.3315 150.628 87.8695 151.353 86.5346C152.078 85.1998 153.114 84.1519 154.459 83.3929C155.805 82.6339 157.387 82.2534 159.205 82.2534C160.884 82.2534 162.363 82.5647 163.641 83.1854C164.918 83.807 165.924 84.7104 166.661 85.8957C167.397 87.081 167.765 88.5257 167.765 90.2288C167.765 90.5279 167.748 90.8107 167.713 91.0743C167.679 91.3388 167.638 91.587 167.592 91.817H151.784V90.298H166.108L165.383 91.1953C165.405 90.9654 165.423 90.7355 165.435 90.5045C165.446 90.2746 165.452 90.0324 165.452 89.7791C165.452 87.9834 164.911 86.6201 163.83 85.6882C162.748 84.7562 161.195 84.2902 159.17 84.2902C156.846 84.2902 155.167 84.8722 154.131 86.0341C153.095 87.197 152.578 88.7902 152.578 90.8158V91.3683C152.578 93.4173 153.095 95.0279 154.131 96.2019C155.166 97.376 156.858 97.9631 159.204 97.9631C161.206 97.9631 162.685 97.6121 163.64 96.9101C164.594 96.208 165.072 95.2354 165.072 93.9932V93.751H167.522V93.9932C167.522 95.1906 167.165 96.2375 166.452 97.1349C165.738 98.0322 164.754 98.7353 163.501 99.2409C162.247 99.7466 160.826 99.9999 159.239 99.9999L159.24 99.9989Z" fill="#FCFCFC"/>
</svg>
