<svg width="42" height="54" viewBox="0 0 42 54" fill="none" xmlns="http://www.w3.org/2000/svg">
<path fill-rule="evenodd" clip-rule="evenodd" d="M21 0C32.598 0 42 9.40202 42 21C42 31.1603 34.7844 39.6353 25.198 41.5803L21.6524 46.6575C21.5788 46.7633 21.4812 46.8497 21.3676 46.9093C21.254 46.9689 21.128 47 21 47C20.872 47 20.746 46.9689 20.6324 46.9093C20.5188 46.8497 20.4212 46.7633 20.3476 46.6575L16.802 41.5803C7.21557 39.6353 0 31.1603 0 21C0 9.40202 9.40202 0 21 0Z" fill="#4C4C4C"/>
<path d="M23 52C23 50.8954 22.1046 50 21 50C19.8954 50 19 50.8954 19 52C19 53.1046 19.8954 54 21 54C22.1046 54 23 53.1046 23 52Z" fill="#4C4C4C"/>
<path d="M8.85809 25V24.169L11.9788 20.7528C12.3451 20.3527 12.6467 20.005 12.8837 19.7095C13.1206 19.411 13.2961 19.1309 13.4099 18.8693C13.5269 18.6046 13.5854 18.3277 13.5854 18.0384C13.5854 17.706 13.5053 17.4182 13.3453 17.1751C13.1883 16.9319 12.9729 16.7442 12.699 16.6119C12.4251 16.4795 12.1173 16.4134 11.7757 16.4134C11.4125 16.4134 11.0955 16.4888 10.8247 16.6396C10.557 16.7873 10.3492 16.995 10.2015 17.2628C10.0568 17.5305 9.98451 17.8445 9.98451 18.2045H8.89502C8.89502 17.6506 9.02274 17.1643 9.27819 16.7457C9.53363 16.3272 9.88141 16.0009 10.3215 15.767C10.7647 15.5331 11.2617 15.4162 11.8126 15.4162C12.3666 15.4162 12.8575 15.5331 13.2853 15.767C13.7131 16.0009 14.0485 16.3164 14.2917 16.7134C14.5348 17.1104 14.6564 17.5521 14.6564 18.0384C14.6564 18.3861 14.5933 18.7262 14.4671 19.0586C14.344 19.3879 14.1286 19.7557 13.8208 20.1619C13.5161 20.5651 13.0929 21.0575 12.5513 21.6392L10.4277 23.9105V23.9844H14.8226V25H8.85809ZM17.7633 22.4148L17.7448 21.0668H17.9664L21.0687 17.9091H22.4167L19.1113 21.2514H19.019L17.7633 22.4148ZM16.7476 25V15.5455H17.8371V25H16.7476ZM21.2533 25L18.4834 21.4915L19.259 20.7344L22.6383 25H21.2533ZM23.8189 25V17.9091H24.8715V19.017H24.9638C25.1116 18.6385 25.3501 18.3446 25.6794 18.1353C26.0087 17.9229 26.4042 17.8168 26.8658 17.8168C27.3336 17.8168 27.7229 17.9229 28.0338 18.1353C28.3477 18.3446 28.5924 18.6385 28.7678 19.017H28.8417C29.0232 18.6508 29.2956 18.36 29.6588 18.1445C30.0219 17.926 30.4574 17.8168 30.9652 17.8168C31.5992 17.8168 32.1178 18.0153 32.521 18.4123C32.9242 18.8062 33.1258 19.4202 33.1258 20.2543V25H32.0363V20.2543C32.0363 19.7311 31.8932 19.3571 31.6069 19.1325C31.3207 18.9078 30.9837 18.7955 30.5959 18.7955C30.0973 18.7955 29.7111 18.9463 29.4372 19.2479C29.1633 19.5464 29.0263 19.925 29.0263 20.3835V25H27.9184V20.1435C27.9184 19.7403 27.7876 19.4156 27.526 19.1694C27.2644 18.9201 26.9274 18.7955 26.515 18.7955C26.2318 18.7955 25.9671 18.8709 25.7209 19.0217C25.4778 19.1725 25.2808 19.3817 25.13 19.6495C24.9823 19.9142 24.9084 20.2204 24.9084 20.5682V25H23.8189Z" fill="white"/>
</svg>
