<svg width="125" height="117" viewBox="0 0 125 117" fill="none" xmlns="http://www.w3.org/2000/svg">
<path d="M58.7917 94.338L39.4028 84.6435L0.625 104.032V20.0139L39.4028 0.625L78.1806 20.0139L116.958 0.625V45.8657" stroke="#C8A35F" stroke-width="1.25" stroke-linecap="round" stroke-linejoin="round"/>
<path d="M39.4062 0.625V84.6435" stroke="#C8A35F" stroke-width="1.25" stroke-linecap="round" stroke-linejoin="round"/>
<path d="M78.1797 20.0139V52.3287" stroke="#C8A35F" stroke-width="1.25" stroke-linecap="round" stroke-linejoin="round"/>
<path d="M117.737 104.814C120.45 102.103 122.297 98.6483 123.045 94.8871C123.794 91.1258 123.41 87.2271 121.943 83.6839C120.476 80.1407 117.991 77.1122 114.802 74.9815C111.613 72.8507 107.865 71.7134 104.03 71.7134C100.195 71.7134 96.4456 72.8507 93.257 74.9815C90.0684 77.1122 87.5833 80.1407 86.116 83.6839C84.6486 87.2271 84.265 91.1258 85.0136 94.8871C85.7622 98.6483 87.6094 102.103 90.3216 104.814C93.0231 107.522 97.5924 111.568 104.03 116.958C110.822 111.206 115.398 107.16 117.737 104.814Z" stroke="#C8A35F" stroke-width="1.25" stroke-linecap="round" stroke-linejoin="round"/>
<path d="M104.031 91.1064V91.1702" stroke="#C8A35F" stroke-width="1.25" stroke-linecap="round" stroke-linejoin="round"/>
<path d="M108.179 95.8919C109.097 94.9624 109.722 93.778 109.975 92.4886C110.228 91.1991 110.099 89.8625 109.602 88.6478C109.105 87.4331 108.264 86.3949 107.185 85.6644C106.106 84.934 104.837 84.5441 103.539 84.5441C102.241 84.5441 100.972 84.934 99.8929 85.6644C98.8137 86.3949 97.9725 87.4331 97.4759 88.6478C96.9793 89.8625 96.8494 91.1991 97.1028 92.4886C97.3562 93.778 97.9814 94.9624 98.8993 95.8919C99.8137 96.8203 101.36 98.2073 103.539 100.055C105.838 98.0832 107.387 96.6962 108.179 95.8919Z" stroke="#C8A35F" stroke-width="1.25" stroke-linecap="round" stroke-linejoin="round"/>
</svg>
