<svg width="88" height="97" viewBox="0 0 88 97" fill="none" xmlns="http://www.w3.org/2000/svg">
<path d="M44.0057 96.5V34.0967M29.5193 77.3086C21.5126 77.3086 15.0232 70.689 15.0232 62.7398C11.3068 62.213 7.87258 60.4729 5.26144 57.7936C2.65031 55.1142 1.01074 51.648 0.601043 47.941C0.191349 44.234 1.03482 40.4969 2.99857 37.3186C4.96232 34.1403 7.93472 31.7014 11.4475 30.3861C10.2672 27.7716 9.89892 24.8668 10.3897 22.0433C10.8804 19.2197 12.2079 16.6057 14.2023 14.5358C16.1967 12.4658 18.7674 11.034 21.5855 10.4234C24.4035 9.81286 27.3409 10.0513 30.0218 11.1083C30.8601 8.06066 32.6837 5.37132 35.2117 3.45444C37.7398 1.53756 40.8321 0.499455 44.0124 0.5C47.1927 0.500546 50.2846 1.53971 52.8119 3.45746C55.3393 5.37521 57.162 8.06517 57.9992 11.1131C60.6802 10.0561 63.6175 9.81766 66.4356 10.4282C69.2537 11.0388 71.8243 12.4706 73.8187 14.5406C75.8131 16.6105 77.1406 19.2245 77.6314 22.0481C78.1221 24.8716 77.7538 27.7764 76.5736 30.3909C80.0804 31.71 83.0467 34.1493 85.0062 37.3253C86.9658 40.5013 87.8076 44.2341 87.3994 47.9371C86.9912 51.6401 85.3561 55.1034 82.7511 57.7829C80.146 60.4623 76.7186 62.2059 73.0075 62.7398C73.0075 70.689 66.5181 77.3086 58.5114 77.3086M44.0057 62.8982L56.0858 50.8976M44.0057 53.2977L31.9256 41.2971M34.3416 96.5H53.6697" stroke="#C8A35F" stroke-linecap="round" stroke-linejoin="round"/>
</svg>
