<svg width="88" height="114" viewBox="0 0 88 114" fill="none" xmlns="http://www.w3.org/2000/svg">
<line y1="113" x2="87.1969" y2="113" stroke="#C8A35F"/>
<line x1="28.0859" y1="59.7245" x2="28.0859" y2="113" stroke="#C8A35F" stroke-linecap="round"/>
<line x1="43.6016" y1="104.992" x2="72.074" y2="104.992" stroke="#C8A35F"/>
<line x1="72.5703" y1="104.602" x2="72.5703" y2="112.61" stroke="#C8A35F"/>
<line x1="44.1016" y1="104.602" x2="44.1016" y2="112.61" stroke="#C8A35F"/>
<path d="M28.4703 0.500061C28.4703 0.500061 38.5477 16.6248 43.7772 28.0271C47.7733 36.7402 51.2699 41.4143 52.8657 50.7479C54.134 58.1659 55.2676 62.7929 52.8657 69.9731C50.5039 77.0337 48.5607 80.0227 41.3855 85.7029C34.2104 91.3831 28.0254 98.3741 28.0254 98.3741" stroke="#C8A35F" stroke-linecap="round"/>
<path d="M28.4742 0.500061C28.4742 0.500061 18.0492 17.5014 12.6394 28.9056C8.50548 37.62 4.88832 42.2949 3.2375 51.63C1.92548 59.0492 0.75282 63.677 3.2375 70.8583C5.68076 77.92 7.69103 80.9095 15.1136 86.5906C22.5361 92.2717 28.0293 98.3741 28.0293 98.3741" stroke="#C8A35F" stroke-linecap="round"/>
</svg>
