<svg width="34" height="39" viewBox="0 0 34 39" fill="none" xmlns="http://www.w3.org/2000/svg">
<path fill-rule="evenodd" clip-rule="evenodd" d="M6 0C2.68629 0 0 2.68629 0 6V28C0 31.3137 2.68629 34 6 34H11.6184L15.6716 38.644C15.7759 38.756 15.9036 38.8456 16.0463 38.907C16.1891 38.9683 16.3436 39 16.5 39C16.6563 39 16.8109 38.9683 16.9537 38.907C17.0964 38.8456 17.2241 38.756 17.3284 38.644L21.3816 34H28C31.3137 34 34 31.3137 34 28V6C34 2.68629 31.3137 0 28 0H6Z" fill="white"/>
<path fill-rule="evenodd" clip-rule="evenodd" d="M13.1252 33.0831C12.7454 32.6423 12.196 32.3893 11.6184 32.3893H6C3.79086 32.3893 2 30.5752 2 28.3374V6.05191C2 3.8141 3.79086 2 6 2H28C30.2091 2 32 3.8141 32 6.05191V28.3374C32 30.5752 30.2091 32.3893 28 32.3893H21.3816C20.804 32.3893 20.2546 32.6423 19.8748 33.0831L16.5 37L13.1252 33.0831Z" fill="#167D50"/>
<path d="M11 8.33333C10.2636 8.33333 9.66667 8.93027 9.66667 9.66667V20.3333C9.66667 21.0697 10.2636 21.6667 11 21.6667H23C23.7364 21.6667 24.3333 21.0697 24.3333 20.3333V9.66667C24.3333 8.93027 23.7364 8.33333 23 8.33333H11ZM14.6667 9H14.6797H19.3464C19.5305 9 19.6797 9.1492 19.6797 9.33333C19.6797 9.51747 19.5305 9.66667 19.3464 9.66667H14.6667C14.4825 9.66667 14.3333 9.51747 14.3333 9.33333C14.3333 9.1492 14.4825 9 14.6667 9ZM11.6667 11H16.3333V16.3333H11.6667C11.2985 16.3333 11 16.0348 11 15.6667V11.6667C11 11.2985 11.2985 11 11.6667 11ZM17.6667 11H22.3333C22.7015 11 23 11.2985 23 11.6667V15.6667C23 16.0348 22.7015 16.3333 22.3333 16.3333H17.6667V11ZM13.6667 17.6667C14.4031 17.6667 15 18.2636 15 19C15 19.7364 14.4031 20.3333 13.6667 20.3333C12.9303 20.3333 12.3333 19.7364 12.3333 19C12.3333 18.2636 12.9303 17.6667 13.6667 17.6667ZM20.3333 17.6667C21.0697 17.6667 21.6667 18.2636 21.6667 19C21.6667 19.7364 21.0697 20.3333 20.3333 20.3333C19.5969 20.3333 19 19.7364 19 19C19 18.2636 19.5969 17.6667 20.3333 17.6667ZM20.9271 22.9922C20.8408 22.9995 20.7533 23.0248 20.6719 23.0677C20.3741 23.2245 20.2403 23.5786 20.3594 23.8932L20.5859 24.3333H13.4141L13.5859 23.974C13.7162 23.6296 13.5423 23.2448 13.1979 23.1146C12.8833 22.9956 12.5292 23.1295 12.3724 23.4271L11.0391 26.0937C11.0108 26.1705 10.9981 26.2516 11 26.3333C11 26.7015 11.2985 27 11.6667 27C11.9069 26.9987 12.1268 26.8659 12.2396 26.6536V26.5859H12.3333L12.7474 25.6667H21.2526L21.6667 26.5859V26.6536C21.7795 26.8659 21.9993 26.9987 22.2396 27C22.6077 27 22.9063 26.7015 22.9063 26.3333C22.9328 26.2283 22.9328 26.1181 22.9063 26.013L21.5729 23.3464C21.4442 23.1021 21.1859 22.9701 20.9271 22.9922Z" fill="white"/>
</svg>
