<svg width="34" height="39" viewBox="0 0 34 39" fill="none" xmlns="http://www.w3.org/2000/svg">
<path fill-rule="evenodd" clip-rule="evenodd" d="M6 0C2.68629 0 0 2.68629 0 6V28C0 31.3137 2.68629 34 6 34H11.6184L15.6716 38.644C15.7759 38.756 15.9036 38.8456 16.0463 38.907C16.1891 38.9683 16.3436 39 16.5 39C16.6563 39 16.8109 38.9683 16.9537 38.907C17.0964 38.8456 17.2241 38.756 17.3284 38.644L21.3816 34H28C31.3137 34 34 31.3137 34 28V6C34 2.68629 31.3137 0 28 0H6Z" fill="white"/>
<path fill-rule="evenodd" clip-rule="evenodd" d="M13.1252 33.0831C12.7454 32.6423 12.196 32.3893 11.6184 32.3893H6C3.79086 32.3893 2 30.5752 2 28.3374V6.05191C2 3.8141 3.79086 2 6 2H28C30.2091 2 32 3.8141 32 6.05191V28.3374C32 30.5752 30.2091 32.3893 28 32.3893H21.3816C20.804 32.3893 20.2546 32.6423 19.8748 33.0831L16.5 37L13.1252 33.0831Z" fill="#3F6D64"/>
<g clip-path="url(#clip0_202_189)">
<path d="M19.5707 20.9053C19.509 20.8404 19.4738 20.7548 19.472 20.6653C19.4723 20.5781 19.5069 20.4944 19.5682 20.4324C19.6295 20.3703 19.7128 20.3347 19.8 20.3333H21.7293C21.8177 20.3333 21.9025 20.2982 21.965 20.2357C22.0275 20.1732 22.0627 20.0884 22.0627 20C22.0603 19.9097 22.0224 19.824 21.9573 19.7613L19.0933 16.892C19.0426 16.8269 19.0133 16.7477 19.0093 16.6653C19.0093 16.6216 19.018 16.5783 19.0347 16.538C19.0515 16.4976 19.0761 16.4609 19.107 16.4301C19.138 16.3993 19.1748 16.3748 19.2152 16.3582C19.2556 16.3416 19.299 16.3332 19.3427 16.3333H20.8667C20.9552 16.333 21.04 16.2976 21.1025 16.2348C21.1649 16.1721 21.2 16.0872 21.2 15.9987C21.1998 15.9542 21.1906 15.9103 21.1729 15.8695C21.1553 15.8287 21.1296 15.7919 21.0973 15.7613L18.2427 12.912L18.224 12.8933C18.1685 12.8308 18.1372 12.7503 18.136 12.6667C18.136 12.5787 18.1708 12.4943 18.2327 12.4319C18.2946 12.3695 18.3787 12.334 18.4667 12.3333H19.6213C19.7097 12.3333 19.7945 12.2982 19.857 12.2357C19.9195 12.1732 19.9547 12.0884 19.9547 12C19.9527 11.9184 19.9204 11.8404 19.864 11.7813H19.872L17.2667 8.65066C17.2504 8.62893 17.2316 8.60923 17.2107 8.592C17.151 8.54399 17.0766 8.51808 17 8.51866V8.51866C16.9234 8.51808 16.849 8.54399 16.7893 8.592C16.7684 8.60923 16.7496 8.62893 16.7333 8.65066L14.136 11.7813C14.0796 11.8404 14.0473 11.9184 14.0453 12C14.0453 12.0884 14.0805 12.1732 14.143 12.2357C14.2055 12.2982 14.2903 12.3333 14.3787 12.3333H15.5333C15.6009 12.3266 15.6689 12.3414 15.7275 12.3757C15.7861 12.41 15.8324 12.4619 15.8596 12.5241C15.8869 12.5863 15.8937 12.6556 15.8792 12.7219C15.8646 12.7882 15.8294 12.8482 15.7787 12.8933L15.76 12.912L12.908 15.7613C12.8758 15.7919 12.85 15.8287 12.8324 15.8695C12.8148 15.9103 12.8055 15.9542 12.8053 15.9987C12.8053 16.0863 12.8397 16.1704 12.901 16.233C12.9623 16.2956 13.0457 16.3316 13.1333 16.3333H14.66C14.7037 16.3332 14.747 16.3416 14.7875 16.3582C14.8279 16.3748 14.8647 16.3993 14.8956 16.4301C14.9266 16.4609 14.9512 16.4976 14.9679 16.538C14.9847 16.5783 14.9933 16.6216 14.9933 16.6653C14.9894 16.7477 14.96 16.8269 14.9093 16.892L12.0427 19.7613C11.9761 19.8233 11.9368 19.9091 11.9333 20C11.9333 20.0884 11.9685 20.1732 12.031 20.2357C12.0935 20.2982 12.1783 20.3333 12.2667 20.3333H14.2C14.2877 20.334 14.3716 20.3693 14.4335 20.4314C14.4954 20.4936 14.5303 20.5776 14.5307 20.6653C14.5289 20.7548 14.4937 20.8404 14.432 20.9053L11.5787 23.748L11.5667 23.76C11.5359 23.7907 11.5115 23.8272 11.4949 23.8673C11.4782 23.9075 11.4696 23.9505 11.4696 23.994C11.4696 24.0375 11.4782 24.0805 11.4949 24.1207C11.5115 24.1608 11.5359 24.1973 11.5667 24.228C11.5978 24.2605 11.635 24.2865 11.6762 24.3046C11.7173 24.3227 11.7617 24.3325 11.8067 24.3333H16.3333V25.6667L17.6667 25.656V24.3333H22.188C22.2783 24.3324 22.3647 24.2966 22.4293 24.2335C22.4938 24.1704 22.5316 24.0849 22.5347 23.9947C22.5352 23.951 22.5272 23.9077 22.5109 23.8672C22.4947 23.8267 22.4706 23.7898 22.44 23.7587L19.5707 20.9053Z" fill="white"/>
</g>
<defs>
<clipPath id="clip0_202_189">
<rect width="20" height="20" fill="white" transform="translate(7 7)"/>
</clipPath>
</defs>
</svg>
