<svg width="34" height="39" viewBox="0 0 34 39" fill="none" xmlns="http://www.w3.org/2000/svg">
<path fill-rule="evenodd" clip-rule="evenodd" d="M6 0C2.68629 0 0 2.68629 0 6V28C0 31.3137 2.68629 34 6 34H11.6184L15.6716 38.644C15.7759 38.756 15.9036 38.8456 16.0463 38.907C16.1891 38.9683 16.3436 39 16.5 39C16.6563 39 16.8109 38.9683 16.9537 38.907C17.0964 38.8456 17.2241 38.756 17.3284 38.644L21.3816 34H28C31.3137 34 34 31.3137 34 28V6C34 2.68629 31.3137 0 28 0H6Z" fill="white"/>
<path fill-rule="evenodd" clip-rule="evenodd" d="M13.1252 33.0831C12.7454 32.6423 12.196 32.3893 11.6184 32.3893H6C3.79086 32.3893 2 30.5752 2 28.3374V6.05191C2 3.8141 3.79086 2 6 2H28C30.2091 2 32 3.8141 32 6.05191V28.3374C32 30.5752 30.2091 32.3893 28 32.3893H21.3816C20.804 32.3893 20.2546 32.6423 19.8748 33.0831L16.5 37L13.1252 33.0831Z" fill="#3F6D64"/>
<g clip-path="url(#clip0_202_60)">
<path d="M17.0513 9.66667C16.6583 9.66667 16.4003 9.90293 16.2308 10.1795L8.43586 22.8975C8.33333 23 8.33333 23.2051 8.33333 23.4103C8.33333 24.1283 8.84613 24.3333 9.25639 24.3333H24.7436C25.2564 24.3333 25.6667 24.1283 25.6667 23.4103C25.6667 23.2052 25.6667 23.1025 25.5641 22.8975L17.8717 10.1795C17.704 9.902 17.3843 9.66667 17.0513 9.66667Z" fill="white"/>
</g>
<defs>
<clipPath id="clip0_202_60">
<rect width="20" height="20" fill="white" transform="translate(7 7)"/>
</clipPath>
</defs>
</svg>
