<svg width="88" height="97" viewBox="0 0 88 97" fill="none" xmlns="http://www.w3.org/2000/svg">
<path d="M44 25.5435V27.6304M44 25.5435C44 18.9015 46.6189 12.5316 51.2805 7.83506C55.9421 3.1385 62.2646 0.5 68.8571 0.5H70.9286V27.6304C70.9286 34.8259 68.0915 41.7266 63.0414 46.8145C57.9913 51.9025 51.1419 54.7609 44 54.7609M44 25.5435C44 18.9015 41.3811 12.5316 36.7195 7.83506C32.0579 3.1385 25.7354 0.5 19.1429 0.5H17.0714V27.6304C17.0714 34.8259 19.9085 41.7266 24.9586 46.8145C30.0087 51.9025 36.8581 54.7609 44 54.7609M44 54.7609V94.413M44 54.7609V92.3261M44 96.5H25.3571C18.7646 96.5 12.4421 93.8615 7.78049 89.1649C3.11887 84.4684 0.5 78.0985 0.5 71.4565H19.1429C25.7354 71.4565 32.0579 74.095 36.7195 78.7916C41.3811 83.4881 44 89.8581 44 96.5ZM44 96.5H62.6429C69.2354 96.5 75.5579 93.8615 80.2195 89.1649C84.8811 84.4684 87.5 78.0985 87.5 71.4565H68.8571C62.2646 71.4565 55.9421 74.095 51.2805 78.7916C46.6189 83.4881 44 89.8581 44 96.5Z" stroke="#C8A35F"/>
</svg>
