<svg width="80" height="94" viewBox="0 0 80 94" fill="none" xmlns="http://www.w3.org/2000/svg">
<path d="M72.0071 35.4397C86.2928 55.5611 75.3642 78.604 70.0785 87.5897C69.3034 88.8486 68.2625 89.9228 67.0286 90.7371C65.7948 91.5514 64.3979 92.0862 62.9356 92.304C52.5785 94.0897 26.7928 96.0825 12.9356 75.9611C-0.707221 56.9897 -0.135793 23.604 1.07849 7.68969C1.12546 6.50297 1.45411 5.34446 2.03731 4.30986C2.6205 3.27527 3.44149 2.39428 4.43245 1.73969C5.42342 1.08509 6.55591 0.675678 7.73638 0.545267C8.91684 0.414857 10.1114 0.567193 11.2213 0.989691C26.5785 5.41112 58.5785 16.4683 72.0071 35.4397Z" stroke="#C8A35F" stroke-linecap="round" stroke-linejoin="round"/>
<path d="M23.8672 28.8111C40.2263 48.0647 54.5859 68.9315 66.7243 91.0897" stroke="#C8A35F" stroke-linecap="round" stroke-linejoin="round"/>
</svg>
