<svg width="116" height="116" viewBox="0 0 116 116" fill="none" xmlns="http://www.w3.org/2000/svg">
<path d="M2.27342 113.727C4.04684 115.5 6.89763 115.5 12.6053 115.5H73.1316C78.8392 115.5 81.69 115.5 83.4634 113.727M2.27342 113.727C0.5 111.953 0.5 109.102 0.5 103.395V42.8684C0.5 37.1608 0.5 34.31 2.27342 32.5366M2.27342 113.727L38.5892 77.4108M83.4634 113.727C85.2368 111.953 85.2368 109.102 85.2368 103.395V42.8684C85.2368 37.1608 85.2368 34.31 83.4634 32.5366M83.4634 113.727L113.727 83.4634C115.5 81.69 115.5 78.8392 115.5 73.1316V12.6053C115.5 6.89763 115.5 4.04684 113.727 2.27342M2.27342 32.5366C4.04684 30.7632 6.89763 30.7632 12.6053 30.7632H73.1316C78.8392 30.7632 81.69 30.7632 83.4634 32.5366M2.27342 32.5366L32.5366 2.27342C34.31 0.5 37.1608 0.5 42.8684 0.5H103.395C109.102 0.5 111.953 0.5 113.727 2.27342M38.5892 77.4108C40.3626 79.1842 43.2134 79.1842 48.9211 79.1842H70.1053M38.5892 77.4108C36.8158 75.6374 36.8158 72.7866 36.8158 67.0789V48.9211M83.4634 32.5366L113.727 2.27342" stroke="#C8A35F" stroke-linecap="round" stroke-linejoin="round"/>
</svg>
