<svg width="34" height="39" viewBox="0 0 34 39" fill="none" xmlns="http://www.w3.org/2000/svg">
<path fill-rule="evenodd" clip-rule="evenodd" d="M6 0C2.68629 0 0 2.68629 0 6V28C0 31.3137 2.68629 34 6 34H11.6184L15.6716 38.644C15.7759 38.756 15.9036 38.8456 16.0463 38.907C16.1891 38.9683 16.3436 39 16.5 39C16.6563 39 16.8109 38.9683 16.9537 38.907C17.0964 38.8456 17.2241 38.756 17.3284 38.644L21.3816 34H28C31.3137 34 34 31.3137 34 28V6C34 2.68629 31.3137 0 28 0H6Z" fill="white"/>
<path fill-rule="evenodd" clip-rule="evenodd" d="M13.1252 33.0831C12.7454 32.6423 12.196 32.3893 11.6184 32.3893H6C3.79086 32.3893 2 30.5752 2 28.3374V6.05191C2 3.8141 3.79086 2 6 2H28C30.2091 2 32 3.8141 32 6.05191V28.3374C32 30.5752 30.2091 32.3893 28 32.3893H21.3816C20.804 32.3893 20.2546 32.6423 19.8748 33.0831L16.5 37L13.1252 33.0831Z" fill="#FFAB33"/>
<g clip-path="url(#clip0_202_119)">
<path d="M18.7733 14.1867C17.9683 15.9838 17.533 17.9245 17.4933 19.8933C17.4805 21.5646 17.7418 23.2266 18.2667 24.8133C17.2704 25.3766 16.1445 25.6707 15 25.6667C13.9442 25.6681 12.9032 25.4187 11.9627 24.9391C11.0221 24.4595 10.2089 23.7633 9.59004 22.908C8.97115 22.0526 8.56426 21.0625 8.40287 20.0191C8.24148 18.9757 8.3302 17.909 8.66173 16.9066C8.99326 15.9042 9.55811 14.9949 10.3098 14.2535C11.0615 13.5122 11.9785 12.9599 12.9854 12.6422C13.9922 12.3246 15.0601 12.2506 16.1012 12.4264C17.1422 12.6022 18.1266 13.0227 18.9733 13.6533C18.92 13.8267 18.84 14 18.7733 14.1867ZM12.4933 18.3333C12.4933 18.1698 12.4449 18.01 12.354 17.8741C12.2632 17.7381 12.1341 17.6322 11.983 17.5696C11.832 17.507 11.6658 17.4907 11.5054 17.5225C11.345 17.5544 11.1977 17.6332 11.0821 17.7488C10.9665 17.8644 10.8878 18.0117 10.8559 18.1721C10.824 18.3324 10.8404 18.4986 10.9029 18.6497C10.9655 18.8007 11.0715 18.9298 11.2074 19.0207C11.3433 19.1115 11.5032 19.16 11.6667 19.16C11.7736 19.1617 11.8797 19.1423 11.9791 19.1029C12.0785 19.0636 12.1692 19.005 12.2459 18.9306C12.3227 18.8562 12.3841 18.7674 12.4265 18.6693C12.469 18.5712 12.4917 18.4657 12.4933 18.3588C12.4933 18.3504 12.4933 18.3419 12.4933 18.3333ZM13 16.4933C13.1635 16.4933 13.3233 16.4448 13.4593 16.354C13.5952 16.2632 13.7012 16.1341 13.7637 15.983C13.8263 15.832 13.8427 15.6657 13.8108 15.5054C13.7789 15.345 13.7002 15.1977 13.5845 15.0821C13.4689 14.9665 13.3216 14.8878 13.1613 14.8559C13.0009 14.824 12.8347 14.8404 12.6837 14.9029C12.5326 14.9655 12.4035 15.0714 12.3127 15.2074C12.2218 15.3433 12.1733 15.5032 12.1733 15.6667V15.6667C12.1717 15.7736 12.1911 15.8798 12.2305 15.9792C12.2699 16.0786 12.3284 16.1692 12.4029 16.246C12.4773 16.3228 12.5661 16.3841 12.6642 16.4266C12.7624 16.469 12.8679 16.4917 12.9748 16.4933H13ZM15.16 18.3333C15.16 18.1698 15.1115 18.01 15.0207 17.8741C14.9298 17.7381 14.8007 17.6322 14.6497 17.5696C14.4986 17.507 14.3324 17.4907 14.1721 17.5225C14.0117 17.5544 13.8644 17.6332 13.7488 17.7488C13.6332 17.8644 13.5545 18.0117 13.5226 18.1721C13.4907 18.3324 13.507 18.4986 13.5696 18.6497C13.6322 18.8007 13.7381 18.9298 13.8741 19.0207C14.01 19.1115 14.1698 19.16 14.3333 19.16V19.16C14.4402 19.1617 14.5464 19.1423 14.6458 19.1029C14.7452 19.0636 14.8358 19.005 14.9126 18.9306C14.9894 18.8562 15.0507 18.7674 15.0932 18.6693C15.1356 18.5712 15.1583 18.4657 15.16 18.3588C15.16 18.3504 15.16 18.3419 15.16 18.3333ZM21.5629 11.2212C21.5629 10.2583 21.3704 10.2583 21.3704 9.29533C21.3703 9.03995 21.4716 8.79497 21.6521 8.6143C21.8326 8.43363 22.0775 8.33206 22.3329 8.33193C22.5883 8.33181 22.8332 8.43314 23.0139 8.61364C23.1946 8.79414 23.2961 9.03901 23.2963 9.2944V9.29533C23.2963 10.2583 23.1037 10.2583 23.1037 11.2212C23.1037 14.1101 25.1741 16.0436 25.1741 19.8879C25.1741 22.7768 24.2593 25.6656 23.2964 25.6656H21.3704C20.4075 25.6656 19.4927 22.7767 19.4927 19.8879C19.4925 16.0435 21.5629 14.11 21.5629 11.2212V11.2212Z" fill="white"/>
</g>
<defs>
<clipPath id="clip0_202_119">
<rect width="20" height="20" fill="white" transform="translate(7 7)"/>
</clipPath>
</defs>
</svg>
