<svg width="34" height="39" viewBox="0 0 34 39" fill="none" xmlns="http://www.w3.org/2000/svg">
<path fill-rule="evenodd" clip-rule="evenodd" d="M6 0C2.68629 0 0 2.68629 0 6V28C0 31.3137 2.68629 34 6 34H11.6184L15.6716 38.644C15.7759 38.756 15.9036 38.8456 16.0463 38.907C16.1891 38.9683 16.3436 39 16.5 39C16.6563 39 16.8109 38.9683 16.9537 38.907C17.0964 38.8456 17.2241 38.756 17.3284 38.644L21.3816 34H28C31.3137 34 34 31.3137 34 28V6C34 2.68629 31.3137 0 28 0H6Z" fill="white"/>
<path fill-rule="evenodd" clip-rule="evenodd" d="M13.1252 33.0831C12.7454 32.6423 12.196 32.3893 11.6184 32.3893H6C3.79086 32.3893 2 30.5752 2 28.3374V6.05191C2 3.8141 3.79086 2 6 2H28C30.2091 2 32 3.8141 32 6.05191V28.3374C32 30.5752 30.2091 32.3893 28 32.3893H21.3816C20.804 32.3893 20.2546 32.6423 19.8748 33.0831L16.5 37L13.1252 33.0831Z" fill="#3F6D64"/>
<g clip-path="url(#clip0_202_199)">
<path d="M20.3333 8.33333C19.5969 8.33333 19 8.93027 19 9.66667C19 10.4031 19.5969 11 20.3333 11C21.0697 11 21.6667 10.4031 21.6667 9.66667C21.6667 8.93027 21.0697 8.33333 20.3333 8.33333ZM17.8593 10.9921C17.686 10.9928 17.5197 11.0611 17.3957 11.1823L13.8749 14.5156C13.5741 14.7993 13.6015 15.2856 13.9323 15.5339L16.3333 17.3333V21C16.32 21.9016 17.6795 21.9016 17.6667 21V17C17.6671 16.7901 17.5687 16.5924 17.4011 16.4661L16.3776 15.6979L18.8016 13.4029L19.7995 14.7343C19.9257 14.902 20.1235 15.0004 20.3333 15H22.3333C23.2348 15.0133 23.2348 13.6539 22.3333 13.6667H20.6667L19.6667 12.3333L18.8672 11.2656C18.7471 11.1008 18.558 11 18.3541 10.9921H17.8593ZM11 16.3333C8.7908 16.3333 7 18.1243 7 20.3333C7 22.5424 8.7908 24.3333 11 24.3333C13.2092 24.3333 15 22.5424 15 20.3333C15 18.1243 13.2092 16.3333 11 16.3333ZM23 16.3333C20.7908 16.3333 19 18.1243 19 20.3333C19 22.5424 20.7908 24.3333 23 24.3333C25.2092 24.3333 27 22.5424 27 20.3333C27 18.1243 25.2092 16.3333 23 16.3333ZM11 17.6667C12.4728 17.6667 13.6667 18.8605 13.6667 20.3333C13.6667 21.8061 12.4728 23 11 23C9.5272 23 8.33333 21.8061 8.33333 20.3333C8.33333 18.8605 9.5272 17.6667 11 17.6667ZM23 17.6667C24.4728 17.6667 25.6667 18.8605 25.6667 20.3333C25.6667 21.8061 24.4728 23 23 23C21.5272 23 20.3333 21.8061 20.3333 20.3333C20.3333 18.8605 21.5272 17.6667 23 17.6667Z" fill="white"/>
</g>
<defs>
<clipPath id="clip0_202_199">
<rect width="20" height="20" fill="white" transform="translate(7 7)"/>
</clipPath>
</defs>
</svg>
