<svg width="81" height="77" viewBox="0 0 81 77" fill="none" xmlns="http://www.w3.org/2000/svg">
<path d="M4.91406 75.5833V9.33333C4.91406 4.91667 9.33073 0.5 13.7474 0.5H35.8307C40.2474 0.5 44.6641 4.91667 44.6641 9.33333V75.5833" stroke="#A8853F" stroke-linecap="round" stroke-linejoin="round"/>
<path d="M57.9141 18.1665H66.7474C71.1641 18.1665 75.5807 22.5832 75.5807 26.9998V75.5832" stroke="#A8853F" stroke-linecap="round" stroke-linejoin="round"/>
<path d="M0.5 75.5835H80" stroke="#A8853F" stroke-linecap="round" stroke-linejoin="round"/>
<circle cx="19.25" cy="19.8335" r="2" fill="#A8853F"/>
<circle cx="19.25" cy="31.8335" r="2" fill="#A8853F"/>
<circle cx="54.25" cy="31.8335" r="2" fill="#A8853F"/>
<circle cx="19.25" cy="45.8335" r="2" fill="#A8853F"/>
<circle cx="54.25" cy="45.8335" r="2" fill="#A8853F"/>
<circle cx="54.25" cy="57.8335" r="2" fill="#A8853F"/>
<circle cx="19.25" cy="57.8335" r="2" fill="#A8853F"/>
<circle cx="32.25" cy="19.8335" r="2" fill="#A8853F"/>
<circle cx="32.25" cy="31.8335" r="2" fill="#A8853F"/>
<circle cx="67.25" cy="31.8335" r="2" fill="#A8853F"/>
<circle cx="32.25" cy="45.8335" r="2" fill="#A8853F"/>
<circle cx="67.25" cy="45.8335" r="2" fill="#A8853F"/>
<circle cx="32.25" cy="57.8335" r="2" fill="#A8853F"/>
<circle cx="67.25" cy="57.8335" r="2" fill="#A8853F"/>
</svg>
