<svg width="34" height="39" viewBox="0 0 34 39" fill="none" xmlns="http://www.w3.org/2000/svg">
<path fill-rule="evenodd" clip-rule="evenodd" d="M6 0C2.68629 0 0 2.68629 0 6V28C0 31.3137 2.68629 34 6 34H11.6184L15.6716 38.644C15.7759 38.756 15.9036 38.8456 16.0463 38.907C16.1891 38.9683 16.3436 39 16.5 39C16.6563 39 16.8109 38.9683 16.9537 38.907C17.0964 38.8456 17.2241 38.756 17.3284 38.644L21.3816 34H28C31.3137 34 34 31.3137 34 28V6C34 2.68629 31.3137 0 28 0H6Z" fill="white"/>
<path fill-rule="evenodd" clip-rule="evenodd" d="M13.1252 33.0831C12.7454 32.6423 12.196 32.3893 11.6184 32.3893H6C3.79086 32.3893 2 30.5752 2 28.3374V6.05191C2 3.8141 3.79086 2 6 2H28C30.2091 2 32 3.8141 32 6.05191V28.3374C32 30.5752 30.2091 32.3893 28 32.3893H21.3816C20.804 32.3893 20.2546 32.6423 19.8748 33.0831L16.5 37L13.1252 33.0831Z" fill="#167D50"/>
<g clip-path="url(#clip0_202_45)">
<path d="M12.6 7C10.691 7 8.4 7.99107 8.4 10.6615V17.9323V23C8.4 23 8.4 24.3333 9.8 24.3333V25.6667C9.8 25.6667 9.8 27 11.2 27C12.6 27 12.6 25.6667 12.6 25.6667V24.3333H22.4V25.6667C22.4 25.6667 22.4 27 23.8 27C25.2 27 25.2 25.6667 25.2 25.6667V24.3333C25.2 24.3333 26.6 24.3333 26.6 23V10.6615C26.6 7.93413 24.8696 7 22.9606 7H12.6ZM12.95 9H22.05C22.2439 9 22.4 9.14867 22.4 9.33333C22.4 9.518 22.2439 9.66667 22.05 9.66667H12.95C12.7561 9.66667 12.6 9.518 12.6 9.33333C12.6 9.14867 12.7561 9 12.95 9ZM11.2 11H23.8C25.2 11 25.2 12.2891 25.2 12.2891V16.3333C25.2 16.3333 25.2 17.6667 23.8 17.6667H11.2C9.8 17.6667 9.8 16.3333 9.8 16.3333V12.3333C9.8 12.3333 9.8 11 11.2 11ZM11.2 20.3333C11.9732 20.3333 12.6 20.9303 12.6 21.6667C12.6 22.4031 11.9732 23 11.2 23C10.4268 23 9.8 22.4031 9.8 21.6667C9.8 20.9303 10.4268 20.3333 11.2 20.3333ZM23.8 20.3333C24.5732 20.3333 25.2 20.9303 25.2 21.6667C25.2 22.4031 24.5732 23 23.8 23C23.0268 23 22.4 22.4031 22.4 21.6667C22.4 20.9303 23.0268 20.3333 23.8 20.3333Z" fill="white"/>
</g>
<defs>
<clipPath id="clip0_202_45">
<rect width="20" height="20" fill="white" transform="translate(7 7)"/>
</clipPath>
</defs>
</svg>
