<svg width="34" height="39" viewBox="0 0 34 39" fill="none" xmlns="http://www.w3.org/2000/svg">
<path fill-rule="evenodd" clip-rule="evenodd" d="M6 0C2.68629 0 0 2.68629 0 6V28C0 31.3137 2.68629 34 6 34H11.6184L15.6716 38.644C15.7759 38.756 15.9036 38.8456 16.0463 38.907C16.1891 38.9683 16.3436 39 16.5 39C16.6563 39 16.8109 38.9683 16.9537 38.907C17.0964 38.8456 17.2241 38.756 17.3284 38.644L21.3816 34H28C31.3137 34 34 31.3137 34 28V6C34 2.68629 31.3137 0 28 0H6Z" fill="white"/>
<path fill-rule="evenodd" clip-rule="evenodd" d="M13.1252 33.0831C12.7454 32.6423 12.196 32.3893 11.6184 32.3893H6C3.79086 32.3893 2 30.5752 2 28.3374V6.05191C2 3.8141 3.79086 2 6 2H28C30.2091 2 32 3.8141 32 6.05191V28.3374C32 30.5752 30.2091 32.3893 28 32.3893H21.3816C20.804 32.3893 20.2546 32.6423 19.8748 33.0831L16.5 37L13.1252 33.0831Z" fill="#3374FF"/>
<g clip-path="url(#clip0_202_27)">
<path d="M24.599 7.2C24.599 7.2 22.7451 7.13957 22.0052 7.93333C21.2939 8.69629 21 9.27929 21 10.8667H8.59896L10.4583 17.9279C10.463 17.9386 10.4715 17.9488 10.4766 17.9594C10.7891 18.9234 11.6061 19.6177 12.5807 19.6581C12.5847 19.66 12.599 19.6667 12.599 19.6667H21.2656V19.9589C21.2656 19.9589 21.2667 20.4006 21 20.9872C20.7333 21.5739 20.6005 21.8667 19.5339 21.8667H10.8672C9.53386 21.8667 9.53386 24.0667 10.8672 24.0667H12.4661H12.599H19.1328H19.2656H19.401C21.001 24.0667 22.199 23.0394 22.599 22.0128C22.999 20.9861 23 20.1078 23 20.1078V19.6667V10.8667C23 10.0987 23.3048 9.4 23.9323 9.4H24.6667C25.2189 9.4 25.6667 8.90749 25.6667 8.3C25.6667 7.69251 25.2189 7.2 24.6667 7.2H24.599ZM19.2656 24.0667C18.4656 24.0667 17.9323 24.6533 17.9323 25.5333C17.9323 26.4133 18.4656 27 19.2656 27C20.0656 27 20.599 26.4133 20.599 25.5333C20.599 24.6533 20.0656 24.0667 19.2656 24.0667ZM12.599 24.0667C11.799 24.0667 11.2656 24.6533 11.2656 25.5333C11.2656 26.4133 11.799 27 12.599 27C13.399 27 13.9323 26.4133 13.9323 25.5333C13.9323 24.6533 13.399 24.0667 12.599 24.0667Z" fill="white"/>
</g>
<defs>
<clipPath id="clip0_202_27">
<rect width="20" height="20" fill="white" transform="translate(7 7)"/>
</clipPath>
</defs>
</svg>
