<svg width="34" height="39" viewBox="0 0 34 39" fill="none" xmlns="http://www.w3.org/2000/svg">
<path fill-rule="evenodd" clip-rule="evenodd" d="M6 0C2.68629 0 0 2.68629 0 6V28C0 31.3137 2.68629 34 6 34H11.6184L15.6716 38.644C15.7759 38.756 15.9036 38.8456 16.0463 38.907C16.1891 38.9683 16.3436 39 16.5 39C16.6563 39 16.8109 38.9683 16.9537 38.907C17.0964 38.8456 17.2241 38.756 17.3284 38.644L21.3816 34H28C31.3137 34 34 31.3137 34 28V6C34 2.68629 31.3137 0 28 0H6Z" fill="white"/>
<path fill-rule="evenodd" clip-rule="evenodd" d="M13.1252 33.0831C12.7454 32.6423 12.196 32.3893 11.6184 32.3893H6C3.79086 32.3893 2 30.5752 2 28.3374V6.05191C2 3.8141 3.79086 2 6 2H28C30.2091 2 32 3.8141 32 6.05191V28.3374C32 30.5752 30.2091 32.3893 28 32.3893H21.3816C20.804 32.3893 20.2546 32.6423 19.8748 33.0831L16.5 37L13.1252 33.0831Z" fill="#F6516D"/>
<g clip-path="url(#clip0_202_209)">
<g clip-path="url(#clip1_202_209)">
<path d="M13 11C11.8955 11 11 10.1045 11 9C11 7.89547 11.8955 7 13 7C14.1045 7 15 7.89547 15 9C15 10.1045 14.1045 11 13 11ZM25.6667 9C25.6667 7.89547 24.7712 7 23.6667 7C22.5621 7 21.6667 7.89547 21.6667 9C21.6667 10.1045 22.5621 11 23.6667 11C24.7712 11 25.6667 10.1045 25.6667 9ZM18.8133 15.8533L15.5067 12.5333C15.3731 12.3989 15.1893 12.3265 15 12.3333H11C10.8263 12.3337 10.6593 12.4004 10.5333 12.52L7.18666 15.84C6.8852 16.076 6.83213 16.5119 7.06813 16.8133C7.30413 17.1148 7.74 17.1679 8.04146 16.9319C8.0856 16.8973 8.12546 16.8575 8.16 16.8133L11 13.9333L8.33333 21.6667H11V26.1067C10.99 26.1729 10.99 26.2404 11 26.3067C11.074 26.6748 11.4325 26.9133 11.8007 26.8393C12.0693 26.7853 12.2793 26.5753 12.3333 26.3067V21.6667H13.6667V26.3333C13.7407 26.7015 14.0992 26.94 14.4673 26.866C14.736 26.812 14.946 26.602 15 26.3333C15.01 26.2671 15.01 26.1996 15 26.1333V21.6667H17.6667L15 13.9333L17.8533 16.8133C17.9823 16.9575 18.1665 17.04 18.36 17.04C18.7272 17.0117 19.0081 16.7015 19 16.3333C19.0031 16.1551 18.9361 15.9827 18.8133 15.8533ZM26.3333 12.3333H21C20.6319 12.3333 20.3333 12.6319 20.3333 13V19.6667C20.3333 20.0348 20.6319 20.3333 21 20.3333C21.3681 20.3333 21.6667 20.0348 21.6667 19.6667V26.3333C21.6667 26.7015 21.9652 27 22.3333 27C22.7015 27 23 26.7015 23 26.3333V19.6667H24.3333V26.3333C24.3333 26.7015 24.6319 27 25 27C25.3681 27 25.6667 26.7015 25.6667 26.3333V19.6667C25.6667 20.0348 25.9652 20.3333 26.3333 20.3333C26.7015 20.3333 27 20.0348 27 19.6667V13C27 12.6319 26.7015 12.3333 26.3333 12.3333Z" fill="white"/>
</g>
</g>
<defs>
<clipPath id="clip0_202_209">
<rect width="20" height="20" fill="white" transform="translate(7 7)"/>
</clipPath>
<clipPath id="clip1_202_209">
<rect width="20" height="20" fill="white" transform="translate(7 7)"/>
</clipPath>
</defs>
</svg>
