<svg width="34" height="39" viewBox="0 0 34 39" fill="none" xmlns="http://www.w3.org/2000/svg">
<path fill-rule="evenodd" clip-rule="evenodd" d="M6 0C2.68629 0 0 2.68629 0 6V28C0 31.3137 2.68629 34 6 34H11.6184L15.6716 38.644C15.7759 38.756 15.9036 38.8456 16.0463 38.907C16.1891 38.9683 16.3436 39 16.5 39C16.6563 39 16.8109 38.9683 16.9537 38.907C17.0964 38.8456 17.2241 38.756 17.3284 38.644L21.3816 34H28C31.3137 34 34 31.3137 34 28V6C34 2.68629 31.3137 0 28 0H6Z" fill="white"/>
<path fill-rule="evenodd" clip-rule="evenodd" d="M13.1252 33.0831C12.7454 32.6423 12.196 32.3893 11.6184 32.3893H6C3.79086 32.3893 2 30.5752 2 28.3374V6.05191C2 3.8141 3.79086 2 6 2H28C30.2091 2 32 3.8141 32 6.05191V28.3374C32 30.5752 30.2091 32.3893 28 32.3893H21.3816C20.804 32.3893 20.2546 32.6423 19.8748 33.0831L16.5 37L13.1252 33.0831Z" fill="#F6516D"/>
<g clip-path="url(#clip0_202_209)">
<path d="M17 8.33333L7 13L9.66667 14.2V16.4667C8.86667 16.7333 8.33333 17.5333 8.33333 18.3333C8.33333 19.1333 8.86667 19.9333 9.66667 20.2V20.3333L8.46667 23.1333C8.06667 24.3333 8.33333 25.6667 10.3333 25.6667C12.3333 25.6667 12.6 24.3333 12.2 23.1333L11 20.3333C11.8 19.9333 12.3333 19.2667 12.3333 18.3333C12.3333 17.4 11.8 16.7333 11 16.4667V14.8667L17 17.6667L27 13L17 8.33333ZM22.8667 17L16.8667 19.6667L13.6667 18.2V18.3333C13.6667 19.2667 13.2667 20.0667 12.6 20.7333L13.4 22.6V22.7333C13.5333 23.2667 13.6667 23.8 13.5333 24.3333C14.4667 24.7333 15.5333 25 16.8667 25C21.2667 25 22.8667 22.3333 22.8667 21V17Z" fill="white"/>
</g>
<defs>
<clipPath id="clip0_202_209">
<rect width="20" height="20" fill="white" transform="translate(7 7)"/>
</clipPath>
</defs>
</svg>
