<svg width="42" height="54" viewBox="0 0 42 54" fill="none" xmlns="http://www.w3.org/2000/svg">
<path fill-rule="evenodd" clip-rule="evenodd" d="M21 0C32.598 0 42 9.40202 42 21C42 31.1603 34.7844 39.6353 25.198 41.5803L21.6524 46.6575C21.5788 46.7633 21.4812 46.8497 21.3676 46.9093C21.254 46.9689 21.128 47 21 47C20.872 47 20.746 46.9689 20.6324 46.9093C20.5188 46.8497 20.4212 46.7633 20.3476 46.6575L16.802 41.5803C7.21557 39.6353 0 31.1603 0 21C0 9.40202 9.40202 0 21 0Z" fill="#4C4C4C"/>
<path d="M23 52C23 50.8954 22.1046 50 21 50C19.8954 50 19 50.8954 19 52C19 53.1046 19.8954 54 21 54C22.1046 54 23 53.1046 23 52Z" fill="#4C4C4C"/>
<path d="M13.096 15.5455V25H11.9511V16.7457H11.8957L9.58749 18.2784V17.1151L11.9511 15.5455H13.096ZM16.8492 22.4148L16.8307 21.0668H17.0523L20.1546 17.9091H21.5026L18.1972 21.2514H18.1049L16.8492 22.4148ZM15.8336 25V15.5455H16.9231V25H15.8336ZM20.3393 25L17.5694 21.4915L18.3449 20.7344L21.7242 25H20.3393ZM22.9049 25V17.9091H23.9574V19.017H24.0498C24.1975 18.6385 24.436 18.3446 24.7653 18.1353C25.0946 17.9229 25.4901 17.8168 25.9517 17.8168C26.4196 17.8168 26.8089 17.9229 27.1197 18.1353C27.4336 18.3446 27.6783 18.6385 27.8537 19.017H27.9276C28.1092 18.6508 28.3816 18.36 28.7447 18.1445C29.1079 17.926 29.5434 17.8168 30.0512 17.8168C30.6852 17.8168 31.2038 18.0153 31.6069 18.4123C32.0101 18.8062 32.2117 19.4202 32.2117 20.2543V25H31.1222V20.2543C31.1222 19.7311 30.9791 19.3571 30.6929 19.1325C30.4066 18.9078 30.0696 18.7955 29.6819 18.7955C29.1833 18.7955 28.797 18.9463 28.5231 19.2479C28.2492 19.5464 28.1123 19.925 28.1123 20.3835V25H27.0043V20.1435C27.0043 19.7403 26.8735 19.4156 26.6119 19.1694C26.3503 18.9201 26.0133 18.7955 25.6009 18.7955C25.3178 18.7955 25.0531 18.8709 24.8069 19.0217C24.5637 19.1725 24.3668 19.3817 24.216 19.6495C24.0682 19.9142 23.9944 20.2204 23.9944 20.5682V25H22.9049Z" fill="white"/>
</svg>
