<svg width="34" height="39" viewBox="0 0 34 39" fill="none" xmlns="http://www.w3.org/2000/svg">
<path fill-rule="evenodd" clip-rule="evenodd" d="M6 0C2.68629 0 0 2.68629 0 6V28C0 31.3137 2.68629 34 6 34H11.6184L15.6716 38.644C15.7759 38.756 15.9036 38.8456 16.0463 38.907C16.1891 38.9683 16.3436 39 16.5 39C16.6563 39 16.8109 38.9683 16.9537 38.907C17.0964 38.8456 17.2241 38.756 17.3284 38.644L21.3816 34H28C31.3137 34 34 31.3137 34 28V6C34 2.68629 31.3137 0 28 0H6Z" fill="white"/>
<path fill-rule="evenodd" clip-rule="evenodd" d="M13.1252 33.0831C12.7454 32.6423 12.196 32.3893 11.6184 32.3893H6C3.79086 32.3893 2 30.5752 2 28.3374V6.05191C2 3.8141 3.79086 2 6 2H28C30.2091 2 32 3.8141 32 6.05191V28.3374C32 30.5752 30.2091 32.3893 28 32.3893H21.3816C20.804 32.3893 20.2546 32.6423 19.8748 33.0831L16.5 37L13.1252 33.0831Z" fill="#F65751"/>
<g clip-path="url(#clip0_202_92)">
<path d="M23 13.6667H20.3333V11H9.66667V16.3333C9.68441 19.2788 12.0865 21.6521 15.032 21.6344C16.9127 21.6231 18.6483 20.6221 19.6 19H23C24.4728 19 25.6667 17.8061 25.6667 16.3333C25.6667 14.8605 24.4728 13.6667 23 13.6667ZM23 17.6667H20.1467C20.2649 17.2319 20.3277 16.7839 20.3333 16.3333V15H23C23.7364 15 24.3333 15.5969 24.3333 16.3333C24.3333 17.0697 23.7364 17.6667 23 17.6667ZM20.3333 23.6667C20.3333 24.0348 20.0348 24.3333 19.6667 24.3333H10.3333C9.96521 24.3333 9.66667 24.0348 9.66667 23.6667C9.66667 23.2985 9.96521 23 10.3333 23H19.6667C20.0348 23 20.3333 23.2985 20.3333 23.6667Z" fill="white"/>
</g>
<defs>
<clipPath id="clip0_202_92">
<rect width="20" height="20" fill="white" transform="translate(7 7)"/>
</clipPath>
</defs>
</svg>
