<svg width="34" height="39" viewBox="0 0 34 39" fill="none" xmlns="http://www.w3.org/2000/svg">
<path fill-rule="evenodd" clip-rule="evenodd" d="M6 0C2.68629 0 0 2.68629 0 6V28C0 31.3137 2.68629 34 6 34H11.6184L15.6716 38.644C15.7759 38.756 15.9036 38.8456 16.0463 38.907C16.1891 38.9683 16.3436 39 16.5 39C16.6563 39 16.8109 38.9683 16.9537 38.907C17.0964 38.8456 17.2241 38.756 17.3284 38.644L21.3816 34H28C31.3137 34 34 31.3137 34 28V6C34 2.68629 31.3137 0 28 0H6Z" fill="white"/>
<path fill-rule="evenodd" clip-rule="evenodd" d="M13.1252 33.0831C12.7454 32.6423 12.196 32.3893 11.6184 32.3893H6C3.79086 32.3893 2 30.5752 2 28.3374V6.05191C2 3.8141 3.79086 2 6 2H28C30.2091 2 32 3.8141 32 6.05191V28.3374C32 30.5752 30.2091 32.3893 28 32.3893H21.3816C20.804 32.3893 20.2546 32.6423 19.8748 33.0831L16.5 37L13.1252 33.0831Z" fill="#F6516D"/>
<g clip-path="url(#clip0_202_72)">
<path d="M20.7344 8.6276C20.2193 8.6276 19.8 8.6 19.6667 9.66667L19.1328 13.0286L22.3333 15.6667H25C26.8667 15.6667 27 14.388 27 14.388L24.4661 11.4297C23.5328 10.4964 22.6 10.3333 21.6667 10.3333V9.66667C21.6667 9.66667 21.7566 8.62747 20.7344 8.6276ZM13.3333 9C13.3333 9 12.0656 9.02747 11.2656 9.29427C10.4656 9.56094 9.66667 10.4948 9.66667 11.8281V17.0286C9.66667 19.2953 8.73333 19.6667 8.33333 19.6667C8.33333 19.6667 7 19.6953 7 21.0286V23.9609C7 23.9609 7.00104 25.0286 8.06771 25.0286H8.33333H9H9.66667V24.362V24.0964C9.66667 23.563 9.4 23.2948 9 23.1615V21.6953C10.3333 21.6953 10.4667 21.4276 11 21.2943L11.7344 24.224C11.8677 24.624 12.001 24.8901 12.401 25.0234H13.7344L15 25V23.9323C15 23.0304 13.6667 23 13.6667 23V19.6667H18.3333L19.2656 23.1615C19.799 25.0281 21 25 21 25H21.6667H23V23.9323C23 22.9832 21.6667 23 21.6667 23L21.7995 17.5625L17.6667 14.3333H11.6667V11.6667C11.6667 11.1333 12.0353 11.0071 12.3333 11C12.9921 10.9843 13.3333 11 13.3333 11C13.8856 11 14.3333 10.5523 14.3333 10C14.3333 9.44773 13.8856 9 13.3333 9ZM22.6667 12.3333C22.8508 12.3333 23 12.4825 23 12.6667C23 12.8508 22.8508 13 22.6667 13C22.4825 13 22.3333 12.8508 22.3333 12.6667C22.3333 12.4825 22.4825 12.3333 22.6667 12.3333Z" fill="white"/>
</g>
<defs>
<clipPath id="clip0_202_72">
<rect width="20" height="20" fill="white" transform="translate(7 7)"/>
</clipPath>
</defs>
</svg>
