<svg width="34" height="39" viewBox="0 0 34 39" fill="none" xmlns="http://www.w3.org/2000/svg">
<path fill-rule="evenodd" clip-rule="evenodd" d="M6 0C2.68629 0 0 2.68629 0 6V28C0 31.3137 2.68629 34 6 34H11.6184L15.6716 38.644C15.7759 38.756 15.9036 38.8456 16.0463 38.907C16.1891 38.9683 16.3436 39 16.5 39C16.6563 39 16.8109 38.9683 16.9537 38.907C17.0964 38.8456 17.2241 38.756 17.3284 38.644L21.3816 34H28C31.3137 34 34 31.3137 34 28V6C34 2.68629 31.3137 0 28 0H6Z" fill="white"/>
<path fill-rule="evenodd" clip-rule="evenodd" d="M13.1252 33.0831C12.7454 32.6423 12.196 32.3893 11.6184 32.3893H6C3.79086 32.3893 2 30.5752 2 28.3374V6.05191C2 3.8141 3.79086 2 6 2H28C30.2091 2 32 3.8141 32 6.05191V28.3374C32 30.5752 30.2091 32.3893 28 32.3893H21.3816C20.804 32.3893 20.2546 32.6423 19.8748 33.0831L16.5 37L13.1252 33.0831Z" fill="#3F6D64"/>
<g clip-path="url(#clip0_202_199)">
<path d="M9.66667 25.3304C9.66667 25.5145 9.81591 25.6637 10 25.6637H14.9987V21.6637H18.9987V25.6637H23.9973C24.1814 25.6637 24.3307 25.5145 24.3307 25.3304V17.6649H9.66667V25.3304ZM25.5733 15.7704L24.3308 14.6785V9.66667C24.3308 8.93029 23.7339 8.33333 22.9975 8.33333C22.2611 8.33333 21.6641 8.93029 21.6641 9.66667V12.3333L17.2411 8.45333C17.1151 8.3196 16.9046 8.31304 16.7705 8.43867L16.7559 8.45333L8.42373 15.7373C8.29787 15.8717 8.30475 16.0826 8.43909 16.2085C8.49971 16.2653 8.57935 16.2974 8.6624 16.2985L11 16.3319H25.3291C25.5132 16.3325 25.6629 16.1837 25.6635 15.9996C25.6638 15.9146 25.6315 15.8326 25.5733 15.7705V15.7704Z" fill="white"/>
</g>
<defs>
<clipPath id="clip0_202_199">
<rect width="20" height="20" fill="white" transform="translate(7 7)"/>
</clipPath>
</defs>
</svg>
