<svg width="34" height="39" viewBox="0 0 34 39" fill="none" xmlns="http://www.w3.org/2000/svg">
<path fill-rule="evenodd" clip-rule="evenodd" d="M6 0C2.68629 0 0 2.68629 0 6V28C0 31.3137 2.68629 34 6 34H11.6184L15.6716 38.644C15.7759 38.756 15.9036 38.8456 16.0463 38.907C16.1891 38.9683 16.3436 39 16.5 39C16.6563 39 16.8109 38.9683 16.9537 38.907C17.0964 38.8456 17.2241 38.756 17.3284 38.644L21.3816 34H28C31.3137 34 34 31.3137 34 28V6C34 2.68629 31.3137 0 28 0H6Z" fill="white"/>
<path fill-rule="evenodd" clip-rule="evenodd" d="M13.1252 33.0831C12.7454 32.6423 12.196 32.3893 11.6184 32.3893H6C3.79086 32.3893 2 30.5752 2 28.3374V6.05191C2 3.8141 3.79086 2 6 2H28C30.2091 2 32 3.8141 32 6.05191V28.3374C32 30.5752 30.2091 32.3893 28 32.3893H21.3816C20.804 32.3893 20.2546 32.6423 19.8748 33.0831L16.5 37L13.1252 33.0831Z" fill="#3F6D64"/>
<g clip-path="url(#clip0_202_166)">
<g clip-path="url(#clip1_202_166)">
<path d="M18.1839 12.1904C18.1839 12.1904 17.2424 13.6667 16.3333 13.6667H13C12.0909 13.6667 11.2688 14.2115 10.6364 14.8181L7.66667 17.6667C7.308 18.0107 7.0096 18.6908 7 19C6.9792 19.6667 7 20.3333 7 20.3333C7 20.3333 8.33333 20.3333 8.33333 19V18.3333L9.66667 17H10.3333L10.544 17.3856C10.544 17.3856 9.27267 19.8181 9.27267 22.0908C9.2728 23 10.1819 23 10.1819 23H11.0909C11.0909 23 11.5455 23 11.0909 22.5455L10.6364 22.0909C10.6364 21.1819 11.6669 19.8889 12.3333 19C12.3333 19 12.3557 20.5439 12.3333 21.6667C12.3227 22.2128 12.6961 23 13.2424 23H14.1515C14.1515 23 14.606 23 14.1515 22.5455L13.6969 22.0909C13.2807 21.3327 14.3333 18.3333 14.3333 18.3333C16.0288 18.3333 16.3333 19 18.3333 19L18.8181 22.0909C18.9667 23.0376 19.6667 23 19.6667 23H21.6667C22.1212 23 22.9481 22.5847 22.1212 21.9685L21.6667 21.6667V19C23.2856 18.7704 24.3333 17.6667 24.3333 16.3333H25.6667C26.0952 16.3333 27 16.3333 27 15.6667V14.3333L24.7273 12.0909C23.7259 11.1029 23 10.3333 21.6667 10.3333C19.7292 10.3333 18.8181 11.0917 18.1839 12.1904Z" fill="white"/>
</g>
</g>
<defs>
<clipPath id="clip0_202_166">
<rect width="20" height="20" fill="white" transform="translate(7 7)"/>
</clipPath>
<clipPath id="clip1_202_166">
<rect width="20" height="20" fill="white" transform="translate(7 7)"/>
</clipPath>
</defs>
</svg>
