<svg width="64" height="64" viewBox="0 0 64 64" fill="none" xmlns="http://www.w3.org/2000/svg">
<rect width="64" height="64" rx="10" fill="#1C1D21"/>
<path d="M44.7566 12C44.9438 12 45.0608 12.2066 44.9669 12.3714L39.441 22.1169L35.4182 29.2181L33.7073 32.2344L32.2098 34.8762C32.1165 35.041 31.8826 35.0416 31.7886 34.8762L30.2886 32.2344L28.5808 29.2181L24.5549 22.1169L19.0328 12.3714C18.9395 12.206 19.0564 12 19.2431 12H25.5186C25.6057 12 25.686 12.0469 25.7289 12.1236L31.3954 22.1169L31.7892 22.8116C31.8826 22.9764 32.1165 22.9764 32.2104 22.8116L32.6042 22.1169L38.2676 12.1236C38.3112 12.0469 38.3914 12 38.4779 12H44.7566Z" fill="#FCFCFC"/>
<path d="M48.7569 22C48.9439 22 49.0607 22.2043 48.9669 22.3672L43.4516 32.0008L40.2855 37.5282L36.8714 43.491L35.4139 46.0372L31.9998 51.9969V52L28.5827 46.0372L27.1251 43.491L23.7111 37.5282L20.548 32.0008L15.0328 22.3672C14.9396 22.2036 15.0564 22 15.2428 22H21.5098C21.5968 22 21.6769 22.0464 21.7198 22.1222L27.1276 31.5623L27.3755 32.0008L30.5416 37.5282L31.7892 39.7041C31.8824 39.867 32.116 39.867 32.2098 39.7041L33.4574 37.5282L36.6204 32.0008L36.8714 31.5623L42.2761 22.1222C42.3196 22.0464 42.3998 22 42.4861 22H48.7563H48.7569Z" fill="#FCFCFC"/>
</svg>
